<?xml version="1.0" encoding="UTF-8" standalone="no"?>
<!-- Created with Inkscape (http://www.inkscape.org/) -->

<svg
   xmlns:dc="http://purl.org/dc/elements/1.1/"
   xmlns:cc="http://creativecommons.org/ns#"
   xmlns:rdf="http://www.w3.org/1999/02/22-rdf-syntax-ns#"
   xmlns:svg="http://www.w3.org/2000/svg"
   xmlns="http://www.w3.org/2000/svg"
   xmlns:sodipodi="http://sodipodi.sourceforge.net/DTD/sodipodi-0.dtd"
   xmlns:inkscape="http://www.inkscape.org/namespaces/inkscape"
   width="122.99789"
   height="153.00368"
   viewBox="0 0 32.543192 40.482223"
   id="svg4958"
   version="1.1"
   inkscape:version="0.91 r13725"
   sodipodi:docname="fingerprint_done.svg">
  <defs
     id="defs4960">
    <clipPath
       clipPathUnits="userSpaceOnUse"
       id="clipPath4259">
      <path
         sodipodi:nodetypes="cccccccccccccccccccccccccccccccccccccccccccccccccc"
         style="color:#000000;display:inline;overflow:visible;visibility:visible;opacity:0.76399997;fill:#5e2c73;fill-opacity:1;fill-rule:nonzero;stroke:none;stroke-width:1.5875001;stroke-linecap:butt;stroke-linejoin:miter;stroke-miterlimit:4;stroke-dasharray:none;stroke-dashoffset:0;stroke-opacity:1;marker:none;enable-background:accumulate"
         d="m 20.278423,166.50371 0,33.86667 33.866667,0 0,-33.86667 z m 15.094686,1.94148 0.63252,2.32648 -1.532723,0.41599 -0.630969,-2.32647 z m -9.388574,0.24598 2.826184,2.19367 -0.973068,1.25367 -2.826183,-2.19315 z m 21.93923,0.52194 1.031462,1.20664 -2.062409,1.76165 -1.03146,-1.20664 z m -17.65422,4.7811 1.894458,1.16375 -0.829924,1.35186 -1.896525,-1.16221 z m 21.642607,6.06836 0.101285,1.58389 -2.593641,0.16588 -0.101285,-1.58389 z m -5.650301,0.43925 0.230477,1.57045 -2.259811,0.33228 -0.230477,-1.57045 z m -4.887041,4.31447 2.093929,0.13281 -0.101802,1.58388 -2.093413,-0.13281 z m -8.329724,0.21497 1.794722,1.29708 -0.929659,1.28674 -1.794722,-1.29656 z m 12.054561,7.4042 1.927532,1.33015 -0.900204,1.3069 -1.929598,-1.33015 z"
         id="path4261"
         inkscape:connector-curvature="0" />
    </clipPath>
    <mask
       maskUnits="userSpaceOnUse"
       id="mask4435">
      <g
         style="opacity:1;stroke-width:0.99999994"
         id="g4485">
        <rect
           style="color:#000000;display:inline;overflow:visible;visibility:visible;opacity:1;fill:#ffffff;fill-opacity:1;fill-rule:nonzero;stroke:none;stroke-width:0.52916664;stroke-linecap:butt;stroke-linejoin:miter;stroke-miterlimit:4;stroke-dasharray:none;stroke-dashoffset:0;stroke-opacity:1;marker:none;enable-background:accumulate"
           id="rect4437"
           width="34.924999"
           height="42.862499"
           x="20.278423"
           y="157.50787" />
        <path
           sodipodi:nodetypes="cc"
           style="color:#000000;display:inline;overflow:visible;visibility:visible;opacity:1;fill:#ffffff;fill-opacity:1;fill-rule:nonzero;stroke:#000000;stroke-width:1.05833328;stroke-linecap:butt;stroke-linejoin:miter;stroke-miterlimit:4;stroke-dasharray:none;stroke-dashoffset:0;stroke-opacity:1;marker:none;enable-background:accumulate"
           d="m 54.539496,175.15365 -1.812832,0.0989"
           id="path4439"
           inkscape:connector-curvature="0" />
        <path
           style="color:#000000;display:inline;overflow:visible;visibility:visible;opacity:1;fill:#ffffff;fill-opacity:1;fill-rule:nonzero;stroke:#000000;stroke-width:1.05833328;stroke-linecap:butt;stroke-linejoin:miter;stroke-miterlimit:4;stroke-dasharray:none;stroke-dashoffset:0;stroke-opacity:1;marker:none;enable-background:accumulate"
           d="m 35.156517,158.18807 0.08312,1.74548"
           id="path4441"
           inkscape:connector-curvature="0" />
        <path
           style="color:#000000;display:inline;overflow:visible;visibility:visible;opacity:1;fill:#ffffff;fill-opacity:1;fill-rule:nonzero;stroke:#000000;stroke-width:1.05833328;stroke-linecap:butt;stroke-linejoin:miter;stroke-miterlimit:4;stroke-dasharray:none;stroke-dashoffset:0;stroke-opacity:1;marker:none;enable-background:accumulate"
           d="m 21.525191,168.66092 1.91171,0.45715"
           id="path4443"
           inkscape:connector-curvature="0" />
        <path
           style="color:#000000;display:inline;overflow:visible;visibility:visible;opacity:1;fill:#ffffff;fill-opacity:1;fill-rule:nonzero;stroke:#000000;stroke-width:1.05833328;stroke-linecap:butt;stroke-linejoin:miter;stroke-miterlimit:4;stroke-dasharray:none;stroke-dashoffset:0;stroke-opacity:1;marker:none;enable-background:accumulate"
           d="m 22.647281,180.67145 1.579239,0"
           id="path4445"
           inkscape:connector-curvature="0" />
        <path
           style="color:#000000;display:inline;overflow:visible;visibility:visible;opacity:1;fill:#ffffff;fill-opacity:1;fill-rule:nonzero;stroke:#000000;stroke-width:1.05833328;stroke-linecap:butt;stroke-linejoin:miter;stroke-miterlimit:4;stroke-dasharray:none;stroke-dashoffset:0;stroke-opacity:1;marker:none;enable-background:accumulate"
           d="m 46.543661,161.51279 -0.706502,1.24677"
           id="path4447"
           inkscape:connector-curvature="0" />
        <path
           style="color:#000000;display:inline;overflow:visible;visibility:visible;opacity:1;fill:#ffffff;fill-opacity:1;fill-rule:nonzero;stroke:#000000;stroke-width:1.05833328;stroke-linecap:butt;stroke-linejoin:miter;stroke-miterlimit:4;stroke-dasharray:none;stroke-dashoffset:0;stroke-opacity:1;marker:none;enable-background:accumulate"
           d="m 30.4188,162.88423 0.498707,1.24677"
           id="path4449"
           inkscape:connector-curvature="0" />
        <path
           style="color:#000000;display:inline;overflow:visible;visibility:visible;opacity:1;fill:#ffffff;fill-opacity:1;fill-rule:nonzero;stroke:#000000;stroke-width:1.05833328;stroke-linecap:butt;stroke-linejoin:miter;stroke-miterlimit:4;stroke-dasharray:none;stroke-dashoffset:0;stroke-opacity:1;marker:none;enable-background:accumulate"
           d="m 26.013554,189.02479 1.454562,0"
           id="path4451"
           inkscape:connector-curvature="0" />
        <path
           style="color:#000000;display:inline;overflow:visible;visibility:visible;opacity:1;fill:#ffffff;fill-opacity:1;fill-rule:nonzero;stroke:#000000;stroke-width:1.05833328;stroke-linecap:butt;stroke-linejoin:miter;stroke-miterlimit:4;stroke-dasharray:none;stroke-dashoffset:0;stroke-opacity:1;marker:none;enable-background:accumulate"
           d="m 47.416399,194.34434 1.080532,1.12209"
           id="path4453"
           inkscape:connector-curvature="0" />
        <path
           style="color:#000000;display:inline;overflow:visible;visibility:visible;opacity:1;fill:#ffffff;fill-opacity:1;fill-rule:nonzero;stroke:#000000;stroke-width:1.05833328;stroke-linecap:butt;stroke-linejoin:miter;stroke-miterlimit:4;stroke-dasharray:none;stroke-dashoffset:0;stroke-opacity:1;marker:none;enable-background:accumulate"
           d="m 48.081342,179.21689 1.579237,0"
           id="path4455"
           inkscape:connector-curvature="0" />
        <path
           style="color:#000000;display:inline;overflow:visible;visibility:visible;opacity:1;fill:#ffffff;fill-opacity:1;fill-rule:nonzero;stroke:#000000;stroke-width:1.05833328;stroke-linecap:butt;stroke-linejoin:miter;stroke-miterlimit:4;stroke-dasharray:none;stroke-dashoffset:0;stroke-opacity:1;marker:none;enable-background:accumulate"
           d="m 39.935793,164.75438 -0.249354,1.49613"
           id="path4457"
           inkscape:connector-curvature="0" />
        <path
           style="color:#000000;display:inline;overflow:visible;visibility:visible;opacity:1;fill:#ffffff;fill-opacity:1;fill-rule:nonzero;stroke:#000000;stroke-width:1.05833328;stroke-linecap:butt;stroke-linejoin:miter;stroke-miterlimit:4;stroke-dasharray:none;stroke-dashoffset:0;stroke-opacity:1;marker:none;enable-background:accumulate"
           d="m 29.047355,174.72853 1.53768,0.0416"
           id="path4459"
           inkscape:connector-curvature="0" />
        <path
           style="color:#000000;display:inline;overflow:visible;visibility:visible;opacity:1;fill:#ffffff;fill-opacity:1;fill-rule:nonzero;stroke:#000000;stroke-width:1.05833328;stroke-linecap:butt;stroke-linejoin:miter;stroke-miterlimit:4;stroke-dasharray:none;stroke-dashoffset:0;stroke-opacity:1;marker:none;enable-background:accumulate"
           d="m 31.499332,193.92875 1.205208,-0.29092"
           id="path4461"
           inkscape:connector-curvature="0" />
        <path
           style="color:#000000;display:inline;overflow:visible;visibility:visible;opacity:1;fill:#ffffff;fill-opacity:1;fill-rule:nonzero;stroke:#000000;stroke-width:1.05833328;stroke-linecap:butt;stroke-linejoin:miter;stroke-miterlimit:4;stroke-dasharray:none;stroke-dashoffset:0;stroke-opacity:1;marker:none;enable-background:accumulate"
           d="m 33.992867,186.40658 1.205209,0"
           id="path4463"
           inkscape:connector-curvature="0" />
        <path
           style="color:#000000;display:inline;overflow:visible;visibility:visible;opacity:1;fill:#ffffff;fill-opacity:1;fill-rule:nonzero;stroke:#000000;stroke-width:1.05833328;stroke-linecap:butt;stroke-linejoin:miter;stroke-miterlimit:4;stroke-dasharray:none;stroke-dashoffset:0;stroke-opacity:1;marker:none;enable-background:accumulate"
           d="m 36.985109,181.08704 1.329886,0"
           id="path4465"
           inkscape:connector-curvature="0" />
        <path
           style="color:#000000;display:inline;overflow:visible;visibility:visible;opacity:1;fill:#ffffff;fill-opacity:1;fill-rule:nonzero;stroke:#000000;stroke-width:1.05833328;stroke-linecap:butt;stroke-linejoin:miter;stroke-miterlimit:4;stroke-dasharray:none;stroke-dashoffset:0;stroke-opacity:1;marker:none;enable-background:accumulate"
           d="m 40.226705,184.99358 1.371444,0"
           id="path4467"
           inkscape:connector-curvature="0" />
        <path
           style="color:#000000;display:inline;overflow:visible;visibility:visible;opacity:1;fill:#ffffff;fill-opacity:1;fill-rule:nonzero;stroke:#000000;stroke-width:1.05833328;stroke-linecap:butt;stroke-linejoin:miter;stroke-miterlimit:4;stroke-dasharray:none;stroke-dashoffset:0;stroke-opacity:1;marker:none;enable-background:accumulate"
           d="m 35.114958,170.07393 0.659721,1.14267"
           id="path4469"
           inkscape:connector-curvature="0" />
        <path
           style="color:#000000;display:inline;overflow:visible;visibility:visible;opacity:1;fill:#ffffff;fill-opacity:1;fill-rule:nonzero;stroke:#000000;stroke-width:1.05833328;stroke-linecap:butt;stroke-linejoin:miter;stroke-miterlimit:4;stroke-dasharray:none;stroke-dashoffset:0;stroke-opacity:1;marker:none;enable-background:accumulate"
           d="m 43.343624,174.47917 1.371444,-0.37403"
           id="path4471"
           inkscape:connector-curvature="0" />
        <path
           style="color:#000000;display:inline;overflow:visible;visibility:visible;opacity:1;fill:#ffffff;fill-opacity:1;fill-rule:nonzero;stroke:#000000;stroke-width:1.05833328;stroke-linecap:butt;stroke-linejoin:miter;stroke-miterlimit:4;stroke-dasharray:none;stroke-dashoffset:0;stroke-opacity:1;marker:none;enable-background:accumulate"
           d="m 43.052711,190.97806 0.623384,1.24677"
           id="path4473"
           inkscape:connector-curvature="0" />
        <path
           style="color:#000000;display:inline;overflow:visible;visibility:visible;opacity:1;fill:#ffffff;fill-opacity:1;fill-rule:nonzero;stroke:#000000;stroke-width:1.05833328;stroke-linecap:butt;stroke-linejoin:miter;stroke-miterlimit:4;stroke-dasharray:none;stroke-dashoffset:0;stroke-opacity:1;marker:none;enable-background:accumulate"
           d="m 27.260322,167.91286 1.454562,0.7065"
           id="path4475"
           inkscape:connector-curvature="0" />
        <path
           style="color:#000000;display:inline;overflow:visible;visibility:visible;opacity:1;fill:#ffffff;fill-opacity:1;fill-rule:nonzero;stroke:#000000;stroke-width:1.05833328;stroke-linecap:butt;stroke-linejoin:miter;stroke-miterlimit:4;stroke-dasharray:none;stroke-dashoffset:0;stroke-opacity:1;marker:none;enable-background:accumulate"
           d="m 48.45537,169.07651 1.620798,-0.66494"
           id="path4477"
           inkscape:connector-curvature="0" />
        <path
           style="color:#000000;display:inline;overflow:visible;visibility:visible;opacity:1;fill:#ffffff;fill-opacity:1;fill-rule:nonzero;stroke:#000000;stroke-width:1.05833328;stroke-linecap:butt;stroke-linejoin:miter;stroke-miterlimit:4;stroke-dasharray:none;stroke-dashoffset:0;stroke-opacity:1;marker:none;enable-background:accumulate"
           d="m 39.478644,172.98305 -0.706501,1.16365"
           id="path4479"
           inkscape:connector-curvature="0" />
        <path
           style="color:#000000;display:inline;overflow:visible;visibility:visible;opacity:1;fill:#ffffff;fill-opacity:1;fill-rule:nonzero;stroke:#000000;stroke-width:1.05833328;stroke-linecap:butt;stroke-linejoin:miter;stroke-miterlimit:4;stroke-dasharray:none;stroke-dashoffset:0;stroke-opacity:1;marker:none;enable-background:accumulate"
           d="m 42.678681,169.28431 1.371445,-1.20521"
           id="path4481"
           inkscape:connector-curvature="0" />
        <path
           style="color:#000000;display:inline;overflow:visible;visibility:visible;opacity:1;fill:#ffffff;fill-opacity:1;fill-rule:nonzero;stroke:#000000;stroke-width:1.05833328;stroke-linecap:butt;stroke-linejoin:miter;stroke-miterlimit:4;stroke-dasharray:none;stroke-dashoffset:0;stroke-opacity:1;marker:none;enable-background:accumulate"
           d="m 29.088914,180.75457 1.246768,-0.0416"
           id="path4483"
           inkscape:connector-curvature="0" />
      </g>
    </mask>
    <clipPath
       clipPathUnits="userSpaceOnUse"
       id="clipPath4293">
      <g
         inkscape:label="Clip"
         id="use4295">
        <g
           mask="url(#mask4435)"
           id="g4302"
           inkscape:groupmode="maskhelper">
          <path
             inkscape:connector-curvature="0"
             id="path4300"
             style="color:#000000;display:inline;overflow:visible;visibility:visible;opacity:1;fill:none;fill-opacity:0;fill-rule:nonzero;stroke:#292929;stroke-width:0.5291667;stroke-linecap:butt;stroke-linejoin:miter;stroke-miterlimit:4;stroke-dasharray:none;stroke-dashoffset:0;stroke-opacity:1;marker:none;enable-background:accumulate"
             d="m 53.456884,187.67956 c 0.101798,-1.38334 0.159037,-2.96303 0.159037,-4.77168 l 10e-7,0 0,-3.175 c -3e-6,-17.4625 -4.481338,-20.6375 -15.875001,-20.6375 -10.867945,0 -15.874999,2.87659 -15.874999,19.05 l 0,3.175 0,5.82083 m 20.637499,11.64167 c 8.363063,-1.27669 9.525,-4.7625 9.525,-15.875 l 10e-7,-3.175 c 3e-6,-16.00799 -3.863324,-19.05 -14.287501,-19.05 -10.887837,0 -14.287499,4.1973 -14.287499,17.4625 l 0,3.175 c -0.0266,4.46842 0,6.87917 0.264583,10.84792 m 17.197916,5.02708 c 8.466667,0 9.525001,-4.7625 9.525001,-12.7 l 0,-6.35 c -10e-7,-12.7 -3.349244,-15.83344 -12.700001,-15.875 -9.215973,0 -12.65416,3.12861 -12.65416,15.82583 0,1.01525 -0.04584,2.08856 -0.04584,3.22417 0,5.16002 -0.05598,8.44437 0.555765,13.47133 m 12.408818,0.287 c 0,0 1.058334,0.52917 2.910417,0.52917 6.614584,0 7.937501,-3.96875 7.937501,-9.525 l 0,-9.525 c -1e-6,-9.525 -3.157622,-12.7 -11.112501,-12.7 -10.011179,0 -11.105635,5.735 -11.105635,14.30308 0,0.54525 -0.0069,2.56016 -0.0069,3.11781 0,7.40833 -0.02406,12.16432 1.295182,15.54754 m 8.229853,-4.65802 c 0,0 1.058333,1.85209 4.7625,1.85209 5.820834,0 6.350001,-4.7625 6.350001,-6.87917 l 0,-11.37708 c 0,-3.175 -0.212783,-10.31875 -9.525001,-10.31875 -9.312218,0 -9.503722,6.83559 -9.525,11.1125 l 0,7.9375 c 0,7.40833 0.261797,10.4316 1.878937,13.30415 m 4.471063,-24.41665 c 0,0 0.79375,-1.5875 3.175,-1.5875 2.38125,0 3.175,1.5875 3.175,1.5875 m 0,14.2875 0,-11.1125 c 0,0 0,-3.175 -3.175,-3.175 -3.175,0 -3.175,3.175 -3.175,3.175 l 0,12.7 c 0,7.67291 6.35,9.525 6.35,9.525 m -8.610038,-0.33209 c -1.127743,-1.91503 -2.502462,-3.63666 -2.502462,-12.36791 l 0,-10.05417 c 0,-2.38125 0,-8.99583 7.9375,-8.99583 7.9375,0 7.937501,6.87916 7.937501,7.9375 l 0,12.7 c -0.0266,0.69154 -10e-7,4.7625 -4.762501,4.7625 -4.7625,0 -4.7625,-4.01776 -4.7625,-4.7625 l 0,-11.1125 c 0,0 0,-1.5875 1.5875,-1.5875 1.5875,0 1.5875,1.5875 1.5875,1.5875 l 0,11.1125 c 0,0 0,1.5875 1.5875,1.5875 1.5875,0 1.5875,-1.5875 1.5875,-1.5875 l 0,-12.7 c 0,0 0,-4.7625 -4.7625,-4.7625 -4.7625,0 -4.7625,4.7625 -4.7625,4.7625 l 0,13.49375 c 0,8.20208 4.497917,10.31875 4.497917,10.31875 m 0.264583,-22.225 0,11.1125 c 0,0 0,3.175 3.175,3.175 3.175,0 3.175001,-3.175 3.175001,-3.175 l 0,-12.7 c 0,-0.6809 -10e-7,-6.35 -6.350001,-6.35 -6.35,0 -6.371278,5.6691 -6.35,6.35 l 0,11.64166 c 0,8.44261 1.645759,10.35574 3.603351,12.24949" />
        </g>
      </g>
    </clipPath>
  </defs>
  <sodipodi:namedview
     id="base"
     pagecolor="#ffffff"
     bordercolor="#666666"
     borderopacity="1.0"
     inkscape:pageopacity="0.0"
     inkscape:pageshadow="2"
     inkscape:zoom="4.0745362"
     inkscape:cx="-9.3624605"
     inkscape:cy="51.204777"
     inkscape:document-units="px"
     inkscape:current-layer="layer1"
     showgrid="true"
     fit-margin-top="0"
     fit-margin-left="0"
     fit-margin-right="0"
     fit-margin-bottom="0"
     units="px"
     inkscape:snap-bbox="true"
     inkscape:bbox-paths="true"
     inkscape:bbox-nodes="true"
     inkscape:snap-bbox-edge-midpoints="true"
     inkscape:snap-bbox-midpoints="true"
     inkscape:object-nodes="false"
     inkscape:snap-others="false"
     inkscape:object-paths="true"
     inkscape:snap-intersection-paths="true"
     inkscape:snap-global="true"
     inkscape:snap-page="true"
     inkscape:snap-smooth-nodes="false"
     inkscape:window-width="1849"
     inkscape:window-height="1050"
     inkscape:window-x="71"
     inkscape:window-y="30"
     inkscape:window-maximized="1">
    <inkscape:grid
       type="xygrid"
       id="grid4212"
       empspacing="6"
       originx="-1.3229167"
       originy="-1.0578788" />
  </sodipodi:namedview>
  <metadata
     id="metadata4963">
    <rdf:RDF>
      <cc:Work
         rdf:about="">
        <dc:format>image/svg+xml</dc:format>
        <dc:type
           rdf:resource="http://purl.org/dc/dcmitype/StillImage" />
        <dc:title></dc:title>
      </cc:Work>
    </rdf:RDF>
  </metadata>
  <g
     inkscape:label="Layer 1"
     inkscape:groupmode="layer"
     id="layer1"
     transform="translate(-21.60134,-158.83028)">
    <path
       style="color:#000000;font-style:normal;font-variant:normal;font-weight:normal;font-stretch:normal;font-size:medium;line-height:normal;font-family:sans-serif;text-indent:0;text-align:start;text-decoration:none;text-decoration-line:none;text-decoration-style:solid;text-decoration-color:#000000;letter-spacing:normal;word-spacing:normal;text-transform:none;direction:ltr;writing-mode:lr-tb;baseline-shift:baseline;text-anchor:start;white-space:normal;clip-rule:nonzero;display:inline;overflow:visible;visibility:visible;opacity:1;isolation:auto;mix-blend-mode:normal;color-interpolation:sRGB;color-interpolation-filters:linearRGB;solid-color:#000000;solid-opacity:1;fill:#3b3b3b;fill-opacity:1;fill-rule:nonzero;stroke:none;stroke-width:2.00000024;stroke-linecap:butt;stroke-linejoin:miter;stroke-miterlimit:4;stroke-dasharray:none;stroke-dashoffset:0;stroke-opacity:1;marker:none;color-rendering:auto;image-rendering:auto;shape-rendering:auto;text-rendering:auto;enable-background:accumulate"
       d="m 65.998047,4.9980469 c -2.633445,0 -5.179263,0.044746 -7.640625,0.1445312 l 0.09375,2 c 2.42291,-0.0981 4.936434,-0.144536 7.546875,-0.1445312 21.438444,-3.78e-5 36.050123,2.9740025 45.390623,13.9003911 7.36915,8.620297 11.57091,22.460975 13.02149,44.068359 l 2.00586,-0.109375 C 124.96779,42.994787 120.72051,28.73603 112.91016,19.599609 103.01633,8.0259781 87.622266,4.9980469 65.998047,4.9980469 Z M 54.365234,5.3671875 C 39.502877,6.3981685 28.017135,9.8392455 19.875,18.388672 14.743204,23.777156 11.004725,31.120494 8.5566406,41.015625 l 1.9570314,0.46875 C 12.896533,31.865729 16.492689,24.838728 21.322266,19.767578 28.989022,11.717331 39.91681,8.3794564 54.458984,7.3652344 l -0.09375,-1.9980469 z m 11.632813,5.6308595 c -20.703939,0 -34.597215,4.020818 -43.207031,14.564453 -8.609821,10.543635 -11.789063,27.280082 -11.789063,52.433594 l 0,7.552734 2,0 0,-7.552734 c 0,-24.982678 3.237383,-41.241744 11.339844,-51.164063 C 32.444257,16.909713 45.551109,13 65.998047,13 78.309891,13 88.05169,14.123089 95.65625,17.460938 l 0.982422,-1.734376 c -8.009659,-3.560483 -18.1494,-4.728515 -30.640625,-4.728515 z m 0,6.001953 c -10.159873,0 -18.56603,1.017813 -25.378906,3.667969 l 0.740234,1.851562 C 47.836195,19.998154 55.943015,19 65.998047,19 c 17.559557,0.07824 29.170656,3.034299 36.488283,11.701172 2.3163,2.743383 4.2149,6.098806 5.73437,10.154297 l 1.86719,-0.767578 C 108.49961,35.88059 106.49201,32.351317 104.01367,29.416016 96.16666,20.122119 83.785794,17.07903 66.003906,17 l -0.0059,0 z m 34.193363,0.5625 -0.980472,1.730469 c 2.962842,1.753816 5.557772,3.933757 7.792972,6.654297 C 115.30946,36.056255 119,53.827174 119,83.998047 l 0,12.003906 c 0,0.293826 -0.005,0.552786 -0.006,0.84375 a 37,37 0 0 1 1.98633,1.851563 C 120.98492,97.787917 121,96.939311 121,96.001953 l 0,-12.003906 c 0,-30.331767 -3.60829,-48.554971 -12.45312,-59.320313 -2.40171,-2.923181 -5.19064,-5.251068 -8.35547,-7.115234 z m -63.22266,4.75 c -3.353936,1.770844 -6.248531,4.053463 -8.707031,6.949219 -7.867197,9.266419 -11.087891,24.465779 -11.087891,48.550781 0,3.80708 -0.177734,7.86852 -0.177734,12.1875 0,19.49522 -0.207953,31.98042 2.111328,51.03906 l 1.986328,-0.24414 C 18.788835,121.8545 18.996094,109.50969 18.996094,90 c 0,-4.265159 0.177734,-8.320212 0.177734,-12.1875 0,-23.904492 3.277066,-38.608665 10.615234,-47.251953 2.234464,-2.63187 4.866515,-4.725726 7.927735,-6.375 l -0.746094,-1.873047 -0.002,0 z m 29.029297,0.689453 c -19.109715,0 -30.075214,5.578815 -36.03125,15.361328 -0.07423,0.121926 -0.138241,0.251868 -0.210938,0.375 l 1.806641,0.875 c 0.04069,-0.06809 0.07601,-0.141354 0.117188,-0.208984 5.571609,-9.151106 15.59055,-14.402344 34.318359,-14.402344 14.899801,0 25.049834,2.951313 31.535156,10.166016 6.485327,7.214702 9.462887,18.944497 9.462887,36.833984 l 0,8.046875 2,0 0,-8.046875 c 0,-18.110476 -2.98221,-30.386539 -9.980465,-38.171875 C 92.017372,26.04478 81.163934,23.001953 65.998047,23.001953 Z m 0,6.001953 c -17.842572,0 -27.295726,6.684445 -32.044922,15.457032 C 29.203926,53.233561 29.040271,63.901479 29,71.996094 l 0,30.005856 c 0,28.02358 0.997845,39.69538 7.234375,50.77344 l 1.742187,-0.98242 C 31.989046,141.15726 31,129.97839 31,102.00195 l 0,-29.999997 c 0.04014,-8.070047 0.27725,-18.401659 4.708984,-26.587891 4.431754,-8.18623 12.935853,-14.410156 30.289063,-14.410156 1.992757,0 3.855613,0.0954 5.623047,0.259766 l 0.330078,-1.970703 c -1.875416,-0.184591 -3.851104,-0.289063 -5.953125,-0.289063 z m 9.914062,0.841797 -0.322265,1.951172 c 11.066008,1.956612 17.201478,7.357515 20.732422,13.689453 4.443344,7.968114 4.679684,17.534056 4.679684,23.511719 l 0,19.535156 a 37,37 0 0 1 2,0.371094 l 0,-19.90625 c 0,-6.022337 -0.17198,-15.95446 -4.929684,-24.486328 C 94.287546,37.724664 87.507052,31.935533 75.912109,29.845703 Z m -9.914062,5.150391 0,0.002 c -15.277777,0 -23.246016,6.520146 -27.136719,14.171875 -2.375421,4.671647 -3.281209,9.717755 -3.632812,13.970703 l 2.013672,0.05273 c 0.348573,-4.076944 1.212332,-8.816029 3.398437,-13.115234 3.609298,-7.098255 10.635202,-13.080116 25.357422,-13.080078 8.38695,0 14.277622,2.03129 18.466797,5.023437 l 1.490234,-1.310546 C 81.374863,37.327824 74.951781,34.996094 65.998047,34.996094 Z m 0,6.001953 c -12.297589,0 -18.763575,5.63246 -21.910156,11.568359 -3.146582,5.935862 -3.129179,12.081083 -3.085938,13.464844 l 0,43.9668 c 0,11.08471 0.757701,19.19342 2.058594,25.43945 l 1.947265,-0.46875 c -1.252292,-6.05222 -2.005859,-14.00959 -2.005859,-24.9707 l 0,-44.011722 0,-0.01563 c -0.03704,-1.18972 -0.02399,-7.046009 2.849609,-12.466797 2.873527,-5.420749 8.444077,-10.505859 20.146485,-10.505859 11.702411,0 17.25115,5.084807 20.115234,10.505859 1.511648,2.861201 2.221539,5.805905 2.564453,8.15625 L 90.632812,61.125 C 90.25173,58.651041 89.474991,55.576304 87.884766,52.566406 84.748846,46.630809 78.295639,40.998047 65.998047,40.998047 Z m -38.074219,1.296875 c -4.146035,9.382242 -4.896484,21.598311 -4.896484,35.761719 0,2.052321 -0.0293,9.673131 -0.0293,11.789062 0,10.380467 -0.01604,19.377987 0.220703,27.275387 l 2.019531,0 c -0.242973,-7.86026 -0.240234,-16.86509 -0.240234,-27.275387 0,-2.099414 0.0293,-9.719847 0.0293,-11.789062 0,-14.055096 0.821838,-25.988836 4.707031,-34.88086 l -1.810547,-0.880859 z m 61.072266,1.070312 -1.478516,1.296875 c 1.59749,1.656158 2.860386,3.462303 3.851563,5.3125 C 94.978737,56.712524 95,64.00194 95,66.001953 L 95,88 a 37,37 0 0 1 0.002,0 37,37 0 0 1 2,0.09961 l 0,-22.099609 c 0,-2.000013 0.02127,-9.708643 -3.869141,-16.970703 -1.054303,-1.968036 -2.420161,-3.893161 -4.136718,-5.664063 z m 22.345706,0.53125 -1.87696,0.771485 c 2.41124,8.350161 3.53321,19.229566 3.53321,33.328125 l 0,14.691406 a 37,37 0 0 1 2,1.226562 l 0,-15.917968 c 0,-14.297802 -1.11675,-25.44151 -3.65625,-34.09961 z M 7.6855469,44.921875 C 5.8805959,53.910802 5,64.799611 5,77.996094 L 5,90 l 0,21.99805 2.0019531,0 0,-21.99805 0,-12.003906 c 0,-13.095466 0.8818691,-23.819908 2.6425781,-32.607422 L 7.6855469,44.921875 Z M 65.998047,47 c -2.787442,0 -5.17477,0.437543 -7.226563,1.166016 l 1,1.732422 C 61.530244,49.336 63.579307,49 65.998047,49 c 8.666668,0 12.728632,4.18382 14.859375,8.445312 2.130743,4.261494 2.140625,8.556641 2.140625,8.556641 l 0,24.044922 a 37,37 0 0 1 2,-0.664063 l 0,-23.380859 c 0,0 0.01567,-4.710711 -2.353516,-9.449219 C 80.275274,51.814227 75.331382,47 65.998047,47 Z m -10.824219,2.933594 c -2.753948,1.803244 -4.614674,4.219587 -5.814453,6.61914 -2.369257,4.738508 -2.363281,9.449219 -2.363281,9.449219 l 0,50.999997 c 0,15.68281 4.32292,25.66086 8.695312,31.70508 4.372392,6.04418 8.88086,8.19531 8.88086,8.19531 l 0.857422,-1.80859 c 0,0 -3.993483,-1.84689 -8.121094,-7.55273 -4.127607,-5.70581 -8.3125,-15.22185 -8.3125,-30.53907 l 0,-50.999997 c 0,0 0.0177,-4.295147 2.148437,-8.556641 1.068501,-2.137004 2.622875,-4.253961 4.998047,-5.833984 l -0.96875,-1.677734 z m 10.824219,3.068359 c -4.722221,0 -7.968729,1.596879 -9.996094,3.21875 -2.027365,1.621909 -2.892578,3.328125 -2.892578,3.328125 l 1.785156,0.900391 c 0,0 0.632836,-1.293746 2.355469,-2.671875 1.722637,-1.378092 4.470272,-2.775391 8.748047,-2.775391 4.277779,0 7.031269,1.397299 8.753906,2.775391 1.722633,1.378129 2.355469,2.671875 2.355469,2.671875 l 1.787109,-0.900391 c 0,0 -0.867166,-1.706216 -2.894531,-3.328125 -2.027365,-1.621871 -5.279728,-3.21875 -10.001953,-3.21875 z m 0,6.001953 c -6.333332,0 -9.771366,3.308387 -11.390625,6.546875 -1.619256,3.238526 -1.609375,6.451172 -1.609375,6.451172 l 0,35.220707 2,0 0,-35.220707 c 0,0 0.01567,-2.79712 1.396484,-5.558594 1.380741,-2.761474 3.936851,-5.439453 9.603516,-5.439453 0.943647,0 1.793796,0.08021 2.574219,0.216797 l 1.085937,-1.791015 c -1.098375,-0.268309 -2.309287,-0.425782 -3.660156,-0.425782 z m 7.380859,2.00586 -1.005859,1.65625 c 1.541873,1.017358 2.540656,2.386002 3.236328,3.777343 1.380745,2.761474 1.386719,5.558594 1.386719,5.558594 l 0,20.724609 a 37,37 0 0 1 2,-1.048828 l 0,-19.675781 c 0,0 0.0177,-3.212646 -1.601563,-6.451172 -0.821654,-1.643297 -2.114934,-3.302891 -4.015625,-4.541015 z m -7.380859,3.988281 c -3.333332,0 -5.273321,1.818132 -6.142578,3.556641 C 58.986211,70.293232 59,72.001953 59,72.001953 l 0,41.996097 c 0,0.4551 0.0066,1.28036 0.08398,2.30468 A 37,37 0 0 1 61,110.42969 l 0,-38.427737 c 0,0 0.01169,-1.291241 0.642578,-2.552734 0.630743,-1.261493 1.688804,-2.45121 4.355469,-2.451172 2.666668,0 3.724726,1.189679 4.355469,2.451172 0.630742,1.261493 0.648437,2.552734 0.648437,2.552734 l 0,24.894531 a 37,37 0 0 1 2,-1.59375 l 0,-23.300781 c 0,0 0.01368,-1.708721 -0.855469,-3.447265 -0.869257,-1.738509 -2.815102,-3.556641 -6.148437,-3.556641 z m 24.982422,0.179687 -1.988281,0.542969 C 88.992444,65.786875 89,65.948139 89,66 l 0,22.503906 a 37,37 0 0 1 2,-0.24414 l 0,-22.257813 c 0,-0.146595 -0.01537,-0.557444 -0.01953,-0.824219 z M 35.029297,67.138672 C 35.007767,68.197455 35,69.186627 35,70.001953 l 0,15.802735 2.001953,-0.06836 0,-15.734375 c 0,-0.811145 0.0085,-1.780406 0.03125,-2.810547 l -2.003906,-0.05273 z m 91.615233,1.710937 -2.00195,0.111329 C 124.87445,73.635654 125,78.61654 125,83.998047 l 0,12.003906 c 0,2.560915 -0.0395,4.959527 -0.0977,7.281247 a 37,37 0 0 1 1.90235,2.89063 c 0.0955,-2.88403 0.14882,-5.94762 0.16015,-9.175783 l 0.0371,0 0,-0.996094 0,-12.003906 c 0,-5.410681 -0.12632,-10.428913 -0.35742,-15.148438 z M 65,72.001953 l 0,15.119141 2.001953,0 0,-15.119141 -2.001953,0 z m 41.99609,12.048828 0,5.988281 a 37,37 0 0 1 2,0.730469 l 0,-6.71875 -2,0 z m -95.994137,5.498047 0,0.44336 0,0.0078 c -0.100498,16.888822 -0.0054,26.044762 0.996094,41.064452 L 14,130.93164 C 13.001494,115.95402 12.901455,106.89021 13.001953,90.007812 l 0,-0.0078 0,-0.451172 -2,0 z m 26,0.191406 L 35,89.806641 35,107.99609 c 0,16.55248 1.301181,26.5169 3.167969,33.30079 1.866792,6.78383 4.322185,10.38022 6.429687,13.95898 l 1.71875,-1.01953 c -2.154833,-3.65915 -4.425967,-6.9416 -6.222656,-13.47071 -1.796689,-6.52909 -3.091797,-16.322 -3.091797,-32.76953 l 0,-18.255856 z M 65,91.115234 65,103.4043 a 37,37 0 0 1 2.001953,-2.56055 l 0,-9.728516 -2.001953,0 z m -12.001953,20.107426 0,8.77734 c 0,14.77587 6.169502,24.09896 12.335937,29.62305 3.133667,2.80725 6.271294,4.64929 8.609375,5.78906 a 37,37 0 0 1 -9.078125,-9.02734 C 59.69155,141.03813 54.998047,132.75013 54.998047,120 l 0,-8.77734 -2,0 z m -29.632813,9.89843 c 0.507737,11.46504 1.71726,20.44888 4.601563,27.84571 l 1.859375,-0.72461 c -2.744724,-7.03889 -3.928443,-15.80068 -4.439453,-27.1211 l -2.021485,0 z M 45.943359,138.85742 44,139.32812 c 0.344542,1.22111 0.705441,2.38767 1.099609,3.45118 2.542961,6.86116 6.104537,10.63404 9.824219,14.23242 l 1.388672,-1.43164 c -3.67909,-3.55915 -6.921064,-6.97329 -9.337891,-13.49414 -0.366943,-0.99005 -0.70648,-2.08219 -1.03125,-3.22852 z"
       transform="matrix(0.26458333,0,0,0.26458333,20.278423,157.50788)"
       id="path4297"
       inkscape:connector-curvature="0" />
    <path
       style="color:#000000;font-style:normal;font-variant:normal;font-weight:normal;font-stretch:normal;font-size:medium;line-height:normal;font-family:sans-serif;text-indent:0;text-align:start;text-decoration:none;text-decoration-line:none;text-decoration-style:solid;text-decoration-color:#000000;letter-spacing:normal;word-spacing:normal;text-transform:none;direction:ltr;writing-mode:lr-tb;baseline-shift:baseline;text-anchor:start;white-space:normal;clip-rule:nonzero;display:inline;overflow:visible;visibility:visible;opacity:1;isolation:auto;mix-blend-mode:normal;color-interpolation:sRGB;color-interpolation-filters:linearRGB;solid-color:#000000;solid-opacity:1;fill:#3eb34f;fill-opacity:1;fill-rule:nonzero;stroke:none;stroke-width:1.05833328;stroke-linecap:butt;stroke-linejoin:miter;stroke-miterlimit:4;stroke-dasharray:none;stroke-dashoffset:0;stroke-opacity:1;marker:none;color-rendering:auto;image-rendering:auto;shape-rendering:auto;text-rendering:auto;enable-background:accumulate"
       d="m 45.414062,181.84961 c -4.815585,0 -8.730468,3.91488 -8.730468,8.73047 0,4.81558 3.914883,8.73242 8.730468,8.73242 4.815586,0 8.730469,-3.91684 8.730469,-8.73242 0,-4.81559 -3.914883,-8.73047 -8.730469,-8.73047 z m 0,1.05859 c 4.24362,0 7.671876,3.42826 7.671876,7.67188 0,4.24362 -3.428256,7.67383 -7.671876,7.67383 -4.243619,0 -7.671875,-3.43021 -7.671874,-7.67383 0,-4.24362 3.428255,-7.67188 7.671874,-7.67188 z"
       id="circle4266"
       inkscape:connector-curvature="0" />
    <path
       style="font-style:normal;font-variant:normal;font-weight:normal;font-stretch:normal;font-size:15px;line-height:125%;font-family:Ubuntu;-inkscape-font-specification:Ubuntu;text-align:center;letter-spacing:0px;word-spacing:0px;writing-mode:lr-tb;text-anchor:middle;display:inline;fill:#3eb34f;fill-opacity:1;stroke:none;stroke-width:0.23672962"
       d="m 50.049558,187.72768 -5.113853,4.47885 -2.946822,-2.52753 -0.542769,0.61369 3.488488,3.67039 5.506321,-5.79406 z"
       id="path4041-9"
       inkscape:connector-curvature="0" />
  </g>
</svg>
