<?xml version="1.0" encoding="UTF-8" standalone="no"?>
<!-- Created with Inkscape (http://www.inkscape.org/) -->

<svg
   xmlns:dc="http://purl.org/dc/elements/1.1/"
   xmlns:cc="http://creativecommons.org/ns#"
   xmlns:rdf="http://www.w3.org/1999/02/22-rdf-syntax-ns#"
   xmlns:svg="http://www.w3.org/2000/svg"
   xmlns="http://www.w3.org/2000/svg"
   xmlns:xlink="http://www.w3.org/1999/xlink"
   xmlns:sodipodi="http://sodipodi.sourceforge.net/DTD/sodipodi-0.dtd"
   xmlns:inkscape="http://www.inkscape.org/namespaces/inkscape"
   viewBox="0 0 576 576"
   style="enable-background:new"
   inkscape:export-ydpi="180"
   inkscape:export-xdpi="180"
   inkscape:export-filename="app_shape02.png"
   sodipodi:docname="apps-scope.svg"
   inkscape:version="0.91+devel r"
   version="1.1"
   id="svg3336"
   height="576"
   width="576">
  <sodipodi:namedview
     inkscape:snap-global="true"
     fit-margin-bottom="50"
     fit-margin-right="32"
     fit-margin-left="32"
     fit-margin-top="50"
     inkscape:snap-grids="true"
     inkscape:guide-bbox="true"
     showguides="false"
     inkscape:snap-center="true"
     inkscape:snap-object-midpoints="true"
     inkscape:snap-midpoints="true"
     inkscape:snap-smooth-nodes="true"
     inkscape:snap-intersection-paths="true"
     inkscape:object-nodes="true"
     inkscape:object-paths="true"
     inkscape:snap-bbox-midpoints="true"
     inkscape:snap-bbox-edge-midpoints="true"
     inkscape:bbox-nodes="true"
     inkscape:bbox-paths="true"
     inkscape:snap-bbox="true"
     showborder="true"
     inkscape:showpageshadow="false"
     inkscape:snap-page="true"
     inkscape:window-maximized="1"
     inkscape:window-y="24"
     inkscape:window-x="0"
     inkscape:window-height="1029"
     inkscape:window-width="1920"
     showgrid="false"
     inkscape:current-layer="layer2"
     inkscape:document-units="px"
     inkscape:cy="160.76046"
     inkscape:cx="61.675665"
     inkscape:zoom="1.5625"
     inkscape:pageshadow="2"
     inkscape:pageopacity="0"
     borderopacity="1.0"
     bordercolor="#666666"
     pagecolor="#4f4f4f"
     id="base">
    <inkscape:grid
       type="xygrid"
       id="grid811"
       originx="32"
       originy="47.999999"
       visible="true"
       enabled="true" />
    <sodipodi:guide
       orientation="1,0"
       position="136,208"
       id="guide819" />
    <sodipodi:guide
       orientation="1,0"
       position="152,192"
       id="guide821" />
    <sodipodi:guide
       orientation="1,0"
       position="424,176"
       id="guide823" />
    <sodipodi:guide
       orientation="1,0"
       position="440,176"
       id="guide825" />
    <sodipodi:guide
       orientation="0,1"
       position="360,440"
       id="guide827" />
    <sodipodi:guide
       orientation="0,1"
       position="368,424"
       id="guide829" />
    <sodipodi:guide
       orientation="0,1"
       position="208,152"
       id="guide831" />
    <sodipodi:guide
       orientation="0,1"
       position="248,136"
       id="guide833" />
    <inkscape:grid
       type="axonomgrid"
       id="grid835"
       units="px"
       empspacing="60"
       gridanglex="42.9"
       gridanglez="42.9"
       spacingy="3.522px"
       enabled="false"
       originx="32"
       originy="48.999996" />
    <sodipodi:guide
       orientation="0,1"
       position="376,408"
       id="guide4126" />
    <sodipodi:guide
       orientation="0,1"
       position="192,168"
       id="guide4128" />
    <sodipodi:guide
       orientation="1,0"
       position="168,128"
       id="guide4130" />
    <sodipodi:guide
       orientation="1,0"
       position="408,168"
       id="guide4134" />
    <sodipodi:guide
       orientation="-0.70710678,0.70710678"
       position="576,576"
       id="guide4136" />
    <sodipodi:guide
       orientation="1,0"
       position="288,-1e-06"
       id="guide4138" />
    <sodipodi:guide
       orientation="0,1"
       position="576,288"
       id="guide4140" />
    <sodipodi:guide
       orientation="0.70710678,0.70710678"
       position="576,-1e-06"
       id="guide4142" />
    <sodipodi:guide
       orientation="0,1"
       position="280,47.999999"
       id="guide4152" />
    <sodipodi:guide
       orientation="0,1"
       position="368,528"
       id="guide4154" />
    <sodipodi:guide
       position="376,128"
       orientation="1,0"
       id="guide4361" />
    <sodipodi:guide
       position="608,200"
       orientation="0,1"
       id="guide4363" />
    <sodipodi:guide
       position="200,224"
       orientation="1,0"
       id="guide4229" />
    <sodipodi:guide
       position="344,376"
       orientation="0,1"
       id="guide4233" />
    <sodipodi:guide
       position="212.48,-64"
       orientation="0,1"
       id="guide4235" />
  </sodipodi:namedview>
  <defs
     id="defs3338">
    <linearGradient
       inkscape:collect="always"
       id="linearGradient4203">
      <stop
         style="stop-color:#ea5420;stop-opacity:1"
         offset="0"
         id="stop4205" />
      <stop
         style="stop-color:#f37e40;stop-opacity:1"
         offset="1"
         id="stop4207" />
    </linearGradient>
    <filter
       inkscape:collect="always"
       style="color-interpolation-filters:sRGB"
       id="filter4395"
       x="-0.011578125"
       width="1.0231562"
       y="-0.012453782"
       height="1.0249076">
      <feGaussianBlur
         inkscape:collect="always"
         stdDeviation="2.47"
         id="feGaussianBlur4397" />
    </filter>
    <clipPath
       clipPathUnits="userSpaceOnUse"
       id="clipPath4755">
      <path
         style="color:#000000;display:inline;overflow:visible;visibility:visible;opacity:0.24899998;fill:#5e2c73;fill-opacity:1;fill-rule:nonzero;stroke:none;stroke-width:5;stroke-linecap:butt;stroke-linejoin:miter;stroke-miterlimit:4;stroke-dasharray:none;stroke-dashoffset:0;stroke-opacity:1;marker:none;enable-background:accumulate"
         d="m 360,50 234,234 0,-68.10156 C 594,70.73665 573.2426,50 427.94531,50 L 360,50 Z"
         id="path4757"
         inkscape:connector-curvature="0" />
    </clipPath>
    <clipPath
       clipPathUnits="userSpaceOnUse"
       id="clipPath4767">
      <path
         style="color:#000000;display:inline;overflow:visible;visibility:visible;opacity:1;fill:#f6f6f6;fill-opacity:1;fill-rule:nonzero;stroke:none;stroke-width:5;stroke-linecap:butt;stroke-linejoin:miter;stroke-miterlimit:4;stroke-dasharray:none;stroke-dashoffset:0;stroke-opacity:1;marker:none;enable-background:accumulate"
         d="M 543.8125,454.1875 312.18945,685.81055 367.94531,681 C 512.70468,668.50896 526.55393,654.72881 539,510.10156 l 4.8125,-55.91406 z"
         id="path4769"
         inkscape:connector-curvature="0" />
    </clipPath>
    <filter
       inkscape:collect="always"
       style="color-interpolation-filters:sRGB"
       id="filter4250"
       x="-0.0463125"
       width="1.092625"
       y="-0.049815126"
       height="1.0996303">
      <feGaussianBlur
         inkscape:collect="always"
         stdDeviation="9.88"
         id="feGaussianBlur4252" />
    </filter>
    <linearGradient
       inkscape:collect="always"
       xlink:href="#linearGradient4203"
       id="linearGradient4209"
       x1="167.5"
       y1="17.25"
       x2="343.25"
       y2="491"
       gradientUnits="userSpaceOnUse" />
    <filter
       inkscape:collect="always"
       style="color-interpolation-filters:sRGB"
       id="filter4220"
       x="-0.012"
       width="1.024"
       y="-0.012"
       height="1.024">
      <feGaussianBlur
         inkscape:collect="always"
         stdDeviation="1.4390401"
         id="feGaussianBlur4222" />
    </filter>
    <linearGradient
       inkscape:collect="always"
       xlink:href="#linearGradient4226"
       id="linearGradient4232"
       x1="255.99998"
       y1="-255.99998"
       x2="405.35773"
       y2="-255.99998"
       gradientUnits="userSpaceOnUse"
       spreadMethod="reflect" />
    <linearGradient
       inkscape:collect="always"
       id="linearGradient4226">
      <stop
         style="stop-color:#a73812;stop-opacity:1"
         offset="0"
         id="stop4228" />
      <stop
         style="stop-color:#973310;stop-opacity:0"
         offset="1"
         id="stop4230" />
    </linearGradient>
    <filter
       inkscape:collect="always"
       style="color-interpolation-filters:sRGB"
       id="filter4234"
       x="-0.096000001"
       width="1.192"
       y="-0.096000001"
       height="1.192">
      <feGaussianBlur
         inkscape:collect="always"
         stdDeviation="11.512321"
         id="feGaussianBlur4236" />
    </filter>
    <filter
       inkscape:collect="always"
       style="color-interpolation-filters:sRGB"
       id="filter6160"
       x="-0.011625"
       width="1.02325"
       y="-0.0124"
       height="1.0248">
      <feGaussianBlur
         inkscape:collect="always"
         stdDeviation="2.48"
         id="feGaussianBlur6162" />
    </filter>
  </defs>
  <metadata
     id="metadata3341">
    <rdf:RDF>
      <cc:Work
         rdf:about="">
        <dc:format>image/svg+xml</dc:format>
        <dc:type
           rdf:resource="http://purl.org/dc/dcmitype/StillImage" />
        <dc:title />
      </cc:Work>
    </rdf:RDF>
  </metadata>
  <g
     inkscape:groupmode="layer"
     id="layer2"
     inkscape:label="Shadow">
    <g
       id="g4388"
       style="opacity:0.2;fill:#000000;filter:url(#filter6160)"
       transform="translate(0,-2)">
      <path
         style="color:#000000;display:inline;overflow:visible;visibility:visible;opacity:0.2;fill:#000000;fill-opacity:1;fill-rule:nonzero;stroke:none;stroke-width:1;marker:none;filter:url(#filter4250);enable-background:accumulate"
         d="M 166.05469,24 C 20.757385,24 0,44.736657 0,189.89844 V 334.10156 C 0,479.26274 20.757385,500 166.05469,500 H 345.94531 C 491.2426,500 512,479.26274 512,334.10156 V 189.89844 C 512,44.736657 491.2426,24 345.94531,24 Z"
         id="path4333"
         inkscape:connector-curvature="0"
         transform="translate(32,32)" />
      <path
         inkscape:connector-curvature="0"
         id="path4381"
         d="M 166.05469,20 C 20.757385,20 0,40.736657 0,185.89844 V 330.10156 C 0,475.26274 20.757385,496 166.05469,496 H 345.94531 C 491.2426,496 512,475.26274 512,330.10156 V 185.89844 C 512,40.736657 491.2426,20 345.94531,20 Z"
         style="color:#000000;display:inline;overflow:visible;visibility:visible;opacity:0.1;fill:#000000;fill-opacity:1;fill-rule:nonzero;stroke:none;stroke-width:1;marker:none;filter:url(#filter4395);enable-background:accumulate"
         transform="translate(32,32)" />
    </g>
  </g>
  <g
     inkscape:groupmode="layer"
     id="layer3"
     inkscape:label="Background"
     transform="translate(32,32)">
    <path
       style="color:#000000;display:inline;overflow:visible;visibility:visible;fill:url(#linearGradient4209);fill-opacity:1;fill-rule:nonzero;stroke:none;stroke-width:1;marker:none;enable-background:accumulate"
       d="M 166.05469,18 C 20.757385,18 0,38.736657 0,183.89844 L 0,328.10156 C 0,473.26274 20.757385,494 166.05469,494 l 179.89062,0 C 491.2426,494 512,473.26274 512,328.10156 l 0,-144.20312 C 512,38.736657 491.2426,18 345.94531,18 l -179.89062,0 z"
       id="rect4158"
       inkscape:connector-curvature="0" />
    <path
       style="color:#000000;display:inline;overflow:visible;visibility:visible;opacity:0.3;fill:#ffffff;fill-opacity:1;fill-rule:nonzero;stroke:none;stroke-width:1;marker:none;enable-background:accumulate"
       d="M 166.05469,18 C 20.757383,18 0,38.736654 0,183.89844 l 0,2 C 0,40.736654 20.757383,20 166.05469,20 l 179.89062,0 C 491.2426,20 512,40.736655 512,185.89844 l 0,-2 C 512,38.736655 491.2426,18 345.94531,18 l -179.89062,0 z"
       id="path4279"
       inkscape:connector-curvature="0" />
    <path
       style="color:#000000;display:inline;overflow:visible;visibility:visible;opacity:0.2;fill:#000000;fill-opacity:1;fill-rule:nonzero;stroke:none;stroke-width:1;marker:none;enable-background:accumulate"
       d="m 0,326.10156 0,2 C 0,473.26274 20.757379,494 166.05469,494 l 179.89062,0 C 491.2426,494 512,473.26274 512,328.10156 l 0,-2 C 512,471.26274 491.2426,492 345.94531,492 l -179.89062,0 C 20.757379,492 0,471.26274 0,326.10156 Z"
       id="path4284"
       inkscape:connector-curvature="0" />
    <path
       style="color:#000000;display:inline;overflow:visible;visibility:visible;opacity:0.1;fill:#ffffff;fill-opacity:1;fill-rule:nonzero;stroke:none;stroke-width:8;stroke-linecap:butt;stroke-linejoin:miter;stroke-miterlimit:4;stroke-dasharray:none;stroke-dashoffset:0;stroke-opacity:1;marker:none;enable-background:accumulate"
       d="M 32 288 L 32 360.10156 C 32 505.26274 52.757382 526 198.05469 526 L 377.94531 526 C 523.2426 526 544 505.26274 544 360.10156 L 544 288 L 32 288 z "
       transform="translate(-32,-32)"
       id="rect4286" />
  </g>
  <g
     inkscape:groupmode="layer"
     id="layer1"
     inkscape:label="Pictogram"
     style="display:inline">
    <circle
       style="color:#000000;display:inline;overflow:visible;visibility:visible;opacity:0.4;fill:#d04616;fill-opacity:1;fill-rule:nonzero;stroke:none;stroke-width:7.99999952;stroke-linecap:square;stroke-linejoin:miter;stroke-miterlimit:4;stroke-dasharray:none;stroke-dashoffset:0;stroke-opacity:1;marker:none;filter:url(#filter4220);enable-background:accumulate"
       id="circle4218"
       cx="258"
       cy="-256"
       r="143.90401"
       transform="rotate(90,-7.1132638e-7,31.999996)" />
    <circle
       transform="rotate(90,-7.1132638e-7,31.999996)"
       r="143.90401"
       cy="-256"
       cx="258"
       id="circle4224"
       style="color:#000000;display:inline;overflow:visible;visibility:visible;opacity:1;fill:url(#linearGradient4232);fill-opacity:1;fill-rule:nonzero;stroke:none;stroke-width:7.99999952;stroke-linecap:square;stroke-linejoin:miter;stroke-miterlimit:4;stroke-dasharray:none;stroke-dashoffset:0;stroke-opacity:1;marker:none;filter:url(#filter4234);enable-background:accumulate" />
    <circle
       transform="rotate(90)"
       r="143.90401"
       cy="-288"
       cx="288"
       id="circle4206"
       style="color:#000000;display:inline;overflow:visible;visibility:visible;opacity:1;fill:#ffffff;fill-opacity:1;fill-rule:nonzero;stroke:none;stroke-width:7.99999952;stroke-linecap:square;stroke-linejoin:miter;stroke-miterlimit:4;stroke-dasharray:none;stroke-dashoffset:0;stroke-opacity:1;marker:none;enable-background:accumulate" />
    <path
       style="display:inline;fill:#ea5420;fill-opacity:1;stroke-width:2.9398191;enable-background:new"
       id="path4258"
       d="m 193.9963,269.54024 c -10.19878,0 -18.46137,8.2634 -18.46137,18.46139 0,10.19309 8.26259,18.45568 18.46137,18.45568 10.19311,0 18.45569,-8.26259 18.45569,-18.45568 0,-10.19799 -8.26258,-18.46139 -18.45569,-18.46139 z m 131.78525,83.88906 c -8.82832,5.09898 -11.85536,16.38129 -6.75557,25.20475 5.0933,8.82834 16.37561,11.85455 25.20393,6.75556 8.82752,-5.0933 11.85457,-16.37561 6.75559,-25.20475 -5.0933,-8.82263 -16.38212,-11.84887 -25.20395,-6.75556 z m -91.69319,-65.42767 c 0,-18.24028 9.05999,-34.35498 22.92309,-44.11321 l -13.49406,-22.6012 c -16.14883,10.79461 -28.16435,27.28971 -33.15766,46.60863 5.82648,4.75434 9.55584,11.99194 9.55584,20.10497 0,8.10813 -3.72936,15.34572 -9.55584,20.10006 4.98681,19.32463 17.00232,35.82055 33.15766,46.61514 l 13.49406,-22.60689 c -13.8631,-9.75253 -22.92309,-25.86641 -22.92309,-44.1075 z m 53.91207,-53.91776 c 28.16514,0 51.27274,21.59491 53.69828,49.13495 l 26.30048,-0.38772 c -1.29405,-20.33173 -10.17604,-38.58421 -23.82372,-52.00594 -7.01814,2.65149 -15.12464,2.2459 -22.13139,-1.79314 -7.01894,-4.0504 -11.41969,-10.88319 -12.62271,-18.30044 -6.8214,-1.88254 -14.00046,-2.91323 -21.42257,-2.91323 -12.75925,0 -24.82271,2.99695 -35.53359,8.29836 l 12.82509,22.98243 c 6.89944,-3.21075 14.5963,-5.01526 22.71013,-5.01526 z m 0,107.82982 c -8.11383,0 -15.81069,-1.80533 -22.70931,-5.01528 l -12.82511,22.98163 c 10.71088,5.3079 22.77434,8.30568 35.53442,8.30568 7.42211,0 14.60118,-1.0315 21.42177,-2.91975 1.20301,-7.41724 5.60537,-14.24352 12.6227,-18.30125 7.01161,-4.04555 15.11326,-4.44382 22.13137,-1.79232 13.64769,-13.42174 22.52968,-31.67421 23.82372,-52.00595 l -26.30696,-0.38772 c -2.41986,27.54738 -25.52665,49.13496 -53.6926,49.13496 z m 37.77461,-119.35113 c 8.82834,5.09818 20.11145,2.07845 25.20475,-6.74987 5.099,-8.82833 2.07928,-20.11145 -6.74988,-25.21126 -8.82832,-5.0933 -20.11063,-2.06705 -25.21125,6.76127 -5.09247,8.82345 -2.06625,20.10657 6.75638,25.19986 z"
       inkscape:connector-curvature="0"
       inkscape:transform-center-x="16.232534"
       inkscape:transform-center-y="-0.0024900663" />
  </g>
</svg>
