<?xml version="1.0" encoding="UTF-8" standalone="no"?>
<!-- Created with Inkscape (http://www.inkscape.org/) -->

<svg
   xmlns:dc="http://purl.org/dc/elements/1.1/"
   xmlns:cc="http://creativecommons.org/ns#"
   xmlns:rdf="http://www.w3.org/1999/02/22-rdf-syntax-ns#"
   xmlns:svg="http://www.w3.org/2000/svg"
   xmlns="http://www.w3.org/2000/svg"
   xmlns:sodipodi="http://sodipodi.sourceforge.net/DTD/sodipodi-0.dtd"
   xmlns:inkscape="http://www.inkscape.org/namespaces/inkscape"
   width="132"
   height="162"
   viewBox="0 0 34.924999 42.8625"
   id="svg4958"
   version="1.1"
   inkscape:version="0.91+devel r"
   sodipodi:docname="fingerprint05b.svg">
  <defs
     id="defs4960">
    <clipPath
       clipPathUnits="userSpaceOnUse"
       id="clipPath4259">
      <path
         sodipodi:nodetypes="cccccccccccccccccccccccccccccccccccccccccccccccccc"
         style="color:#000000;display:inline;overflow:visible;visibility:visible;opacity:0.76399997;fill:#5e2c73;fill-opacity:1;fill-rule:nonzero;stroke:none;stroke-width:1.5875001;stroke-linecap:butt;stroke-linejoin:miter;stroke-miterlimit:4;stroke-dasharray:none;stroke-dashoffset:0;stroke-opacity:1;marker:none;enable-background:accumulate"
         d="m 20.278423,166.50371 v 33.86667 H 54.14509 v -33.86667 z m 15.094686,1.94148 0.63252,2.32648 -1.532723,0.41599 -0.630969,-2.32647 z m -9.388574,0.24598 2.826184,2.19367 -0.973068,1.25367 -2.826183,-2.19315 z m 21.93923,0.52194 1.031462,1.20664 -2.062409,1.76165 -1.03146,-1.20664 z m -17.65422,4.7811 1.894458,1.16375 -0.829924,1.35186 -1.896525,-1.16221 z m 21.642607,6.06836 0.101285,1.58389 -2.593641,0.16588 -0.101285,-1.58389 z m -5.650301,0.43925 0.230477,1.57045 -2.259811,0.33228 -0.230477,-1.57045 z m -4.887041,4.31447 2.093929,0.13281 -0.101802,1.58388 -2.093413,-0.13281 z m -8.329724,0.21497 1.794722,1.29708 -0.929659,1.28674 -1.794722,-1.29656 z m 12.054561,7.4042 1.927532,1.33015 -0.900204,1.3069 -1.929598,-1.33015 z"
         id="path4261"
         inkscape:connector-curvature="0" />
    </clipPath>
    <mask
       maskUnits="userSpaceOnUse"
       id="mask4435">
      <g
         style="opacity:1;stroke-width:0.99999994"
         id="g4485">
        <rect
           style="color:#000000;display:inline;overflow:visible;visibility:visible;opacity:1;fill:#ffffff;fill-opacity:1;fill-rule:nonzero;stroke:none;stroke-width:0.52916664;stroke-linecap:butt;stroke-linejoin:miter;stroke-miterlimit:4;stroke-dasharray:none;stroke-dashoffset:0;stroke-opacity:1;marker:none;enable-background:accumulate"
           id="rect4437"
           width="34.924999"
           height="42.862499"
           x="20.278423"
           y="157.50787" />
        <path
           sodipodi:nodetypes="cc"
           style="color:#000000;display:inline;overflow:visible;visibility:visible;opacity:1;fill:#ffffff;fill-opacity:1;fill-rule:nonzero;stroke:#000000;stroke-width:1.05833328;stroke-linecap:butt;stroke-linejoin:miter;stroke-miterlimit:4;stroke-dasharray:none;stroke-dashoffset:0;stroke-opacity:1;marker:none;enable-background:accumulate"
           d="m 54.539496,175.15365 -1.812832,0.0989"
           id="path4439"
           inkscape:connector-curvature="0" />
        <path
           style="color:#000000;display:inline;overflow:visible;visibility:visible;opacity:1;fill:#ffffff;fill-opacity:1;fill-rule:nonzero;stroke:#000000;stroke-width:1.05833328;stroke-linecap:butt;stroke-linejoin:miter;stroke-miterlimit:4;stroke-dasharray:none;stroke-dashoffset:0;stroke-opacity:1;marker:none;enable-background:accumulate"
           d="m 35.156517,158.18807 0.08312,1.74548"
           id="path4441"
           inkscape:connector-curvature="0" />
        <path
           style="color:#000000;display:inline;overflow:visible;visibility:visible;opacity:1;fill:#ffffff;fill-opacity:1;fill-rule:nonzero;stroke:#000000;stroke-width:1.05833328;stroke-linecap:butt;stroke-linejoin:miter;stroke-miterlimit:4;stroke-dasharray:none;stroke-dashoffset:0;stroke-opacity:1;marker:none;enable-background:accumulate"
           d="m 21.525191,168.66092 1.91171,0.45715"
           id="path4443"
           inkscape:connector-curvature="0" />
        <path
           style="color:#000000;display:inline;overflow:visible;visibility:visible;opacity:1;fill:#ffffff;fill-opacity:1;fill-rule:nonzero;stroke:#000000;stroke-width:1.05833328;stroke-linecap:butt;stroke-linejoin:miter;stroke-miterlimit:4;stroke-dasharray:none;stroke-dashoffset:0;stroke-opacity:1;marker:none;enable-background:accumulate"
           d="M 22.647281,180.67145 H 24.22652"
           id="path4445"
           inkscape:connector-curvature="0" />
        <path
           style="color:#000000;display:inline;overflow:visible;visibility:visible;opacity:1;fill:#ffffff;fill-opacity:1;fill-rule:nonzero;stroke:#000000;stroke-width:1.05833328;stroke-linecap:butt;stroke-linejoin:miter;stroke-miterlimit:4;stroke-dasharray:none;stroke-dashoffset:0;stroke-opacity:1;marker:none;enable-background:accumulate"
           d="m 46.543661,161.51279 -0.706502,1.24677"
           id="path4447"
           inkscape:connector-curvature="0" />
        <path
           style="color:#000000;display:inline;overflow:visible;visibility:visible;opacity:1;fill:#ffffff;fill-opacity:1;fill-rule:nonzero;stroke:#000000;stroke-width:1.05833328;stroke-linecap:butt;stroke-linejoin:miter;stroke-miterlimit:4;stroke-dasharray:none;stroke-dashoffset:0;stroke-opacity:1;marker:none;enable-background:accumulate"
           d="m 30.4188,162.88423 0.498707,1.24677"
           id="path4449"
           inkscape:connector-curvature="0" />
        <path
           style="color:#000000;display:inline;overflow:visible;visibility:visible;opacity:1;fill:#ffffff;fill-opacity:1;fill-rule:nonzero;stroke:#000000;stroke-width:1.05833328;stroke-linecap:butt;stroke-linejoin:miter;stroke-miterlimit:4;stroke-dasharray:none;stroke-dashoffset:0;stroke-opacity:1;marker:none;enable-background:accumulate"
           d="m 26.013554,189.02479 h 1.454562"
           id="path4451"
           inkscape:connector-curvature="0" />
        <path
           style="color:#000000;display:inline;overflow:visible;visibility:visible;opacity:1;fill:#ffffff;fill-opacity:1;fill-rule:nonzero;stroke:#000000;stroke-width:1.05833328;stroke-linecap:butt;stroke-linejoin:miter;stroke-miterlimit:4;stroke-dasharray:none;stroke-dashoffset:0;stroke-opacity:1;marker:none;enable-background:accumulate"
           d="m 47.416399,194.34434 1.080532,1.12209"
           id="path4453"
           inkscape:connector-curvature="0" />
        <path
           style="color:#000000;display:inline;overflow:visible;visibility:visible;opacity:1;fill:#ffffff;fill-opacity:1;fill-rule:nonzero;stroke:#000000;stroke-width:1.05833328;stroke-linecap:butt;stroke-linejoin:miter;stroke-miterlimit:4;stroke-dasharray:none;stroke-dashoffset:0;stroke-opacity:1;marker:none;enable-background:accumulate"
           d="m 48.081342,179.21689 h 1.579237"
           id="path4455"
           inkscape:connector-curvature="0" />
        <path
           style="color:#000000;display:inline;overflow:visible;visibility:visible;opacity:1;fill:#ffffff;fill-opacity:1;fill-rule:nonzero;stroke:#000000;stroke-width:1.05833328;stroke-linecap:butt;stroke-linejoin:miter;stroke-miterlimit:4;stroke-dasharray:none;stroke-dashoffset:0;stroke-opacity:1;marker:none;enable-background:accumulate"
           d="m 39.935793,164.75438 -0.249354,1.49613"
           id="path4457"
           inkscape:connector-curvature="0" />
        <path
           style="color:#000000;display:inline;overflow:visible;visibility:visible;opacity:1;fill:#ffffff;fill-opacity:1;fill-rule:nonzero;stroke:#000000;stroke-width:1.05833328;stroke-linecap:butt;stroke-linejoin:miter;stroke-miterlimit:4;stroke-dasharray:none;stroke-dashoffset:0;stroke-opacity:1;marker:none;enable-background:accumulate"
           d="m 29.047355,174.72853 1.53768,0.0416"
           id="path4459"
           inkscape:connector-curvature="0" />
        <path
           style="color:#000000;display:inline;overflow:visible;visibility:visible;opacity:1;fill:#ffffff;fill-opacity:1;fill-rule:nonzero;stroke:#000000;stroke-width:1.05833328;stroke-linecap:butt;stroke-linejoin:miter;stroke-miterlimit:4;stroke-dasharray:none;stroke-dashoffset:0;stroke-opacity:1;marker:none;enable-background:accumulate"
           d="m 31.499332,193.92875 1.205208,-0.29092"
           id="path4461"
           inkscape:connector-curvature="0" />
        <path
           style="color:#000000;display:inline;overflow:visible;visibility:visible;opacity:1;fill:#ffffff;fill-opacity:1;fill-rule:nonzero;stroke:#000000;stroke-width:1.05833328;stroke-linecap:butt;stroke-linejoin:miter;stroke-miterlimit:4;stroke-dasharray:none;stroke-dashoffset:0;stroke-opacity:1;marker:none;enable-background:accumulate"
           d="m 33.992867,186.40658 h 1.205209"
           id="path4463"
           inkscape:connector-curvature="0" />
        <path
           style="color:#000000;display:inline;overflow:visible;visibility:visible;opacity:1;fill:#ffffff;fill-opacity:1;fill-rule:nonzero;stroke:#000000;stroke-width:1.05833328;stroke-linecap:butt;stroke-linejoin:miter;stroke-miterlimit:4;stroke-dasharray:none;stroke-dashoffset:0;stroke-opacity:1;marker:none;enable-background:accumulate"
           d="m 36.985109,181.08704 h 1.329886"
           id="path4465"
           inkscape:connector-curvature="0" />
        <path
           style="color:#000000;display:inline;overflow:visible;visibility:visible;opacity:1;fill:#ffffff;fill-opacity:1;fill-rule:nonzero;stroke:#000000;stroke-width:1.05833328;stroke-linecap:butt;stroke-linejoin:miter;stroke-miterlimit:4;stroke-dasharray:none;stroke-dashoffset:0;stroke-opacity:1;marker:none;enable-background:accumulate"
           d="m 40.226705,184.99358 h 1.371444"
           id="path4467"
           inkscape:connector-curvature="0" />
        <path
           style="color:#000000;display:inline;overflow:visible;visibility:visible;opacity:1;fill:#ffffff;fill-opacity:1;fill-rule:nonzero;stroke:#000000;stroke-width:1.05833328;stroke-linecap:butt;stroke-linejoin:miter;stroke-miterlimit:4;stroke-dasharray:none;stroke-dashoffset:0;stroke-opacity:1;marker:none;enable-background:accumulate"
           d="m 35.114958,170.07393 0.659721,1.14267"
           id="path4469"
           inkscape:connector-curvature="0" />
        <path
           style="color:#000000;display:inline;overflow:visible;visibility:visible;opacity:1;fill:#ffffff;fill-opacity:1;fill-rule:nonzero;stroke:#000000;stroke-width:1.05833328;stroke-linecap:butt;stroke-linejoin:miter;stroke-miterlimit:4;stroke-dasharray:none;stroke-dashoffset:0;stroke-opacity:1;marker:none;enable-background:accumulate"
           d="m 43.343624,174.47917 1.371444,-0.37403"
           id="path4471"
           inkscape:connector-curvature="0" />
        <path
           style="color:#000000;display:inline;overflow:visible;visibility:visible;opacity:1;fill:#ffffff;fill-opacity:1;fill-rule:nonzero;stroke:#000000;stroke-width:1.05833328;stroke-linecap:butt;stroke-linejoin:miter;stroke-miterlimit:4;stroke-dasharray:none;stroke-dashoffset:0;stroke-opacity:1;marker:none;enable-background:accumulate"
           d="m 43.052711,190.97806 0.623384,1.24677"
           id="path4473"
           inkscape:connector-curvature="0" />
        <path
           style="color:#000000;display:inline;overflow:visible;visibility:visible;opacity:1;fill:#ffffff;fill-opacity:1;fill-rule:nonzero;stroke:#000000;stroke-width:1.05833328;stroke-linecap:butt;stroke-linejoin:miter;stroke-miterlimit:4;stroke-dasharray:none;stroke-dashoffset:0;stroke-opacity:1;marker:none;enable-background:accumulate"
           d="m 27.260322,167.91286 1.454562,0.7065"
           id="path4475"
           inkscape:connector-curvature="0" />
        <path
           style="color:#000000;display:inline;overflow:visible;visibility:visible;opacity:1;fill:#ffffff;fill-opacity:1;fill-rule:nonzero;stroke:#000000;stroke-width:1.05833328;stroke-linecap:butt;stroke-linejoin:miter;stroke-miterlimit:4;stroke-dasharray:none;stroke-dashoffset:0;stroke-opacity:1;marker:none;enable-background:accumulate"
           d="m 48.45537,169.07651 1.620798,-0.66494"
           id="path4477"
           inkscape:connector-curvature="0" />
        <path
           style="color:#000000;display:inline;overflow:visible;visibility:visible;opacity:1;fill:#ffffff;fill-opacity:1;fill-rule:nonzero;stroke:#000000;stroke-width:1.05833328;stroke-linecap:butt;stroke-linejoin:miter;stroke-miterlimit:4;stroke-dasharray:none;stroke-dashoffset:0;stroke-opacity:1;marker:none;enable-background:accumulate"
           d="m 39.478644,172.98305 -0.706501,1.16365"
           id="path4479"
           inkscape:connector-curvature="0" />
        <path
           style="color:#000000;display:inline;overflow:visible;visibility:visible;opacity:1;fill:#ffffff;fill-opacity:1;fill-rule:nonzero;stroke:#000000;stroke-width:1.05833328;stroke-linecap:butt;stroke-linejoin:miter;stroke-miterlimit:4;stroke-dasharray:none;stroke-dashoffset:0;stroke-opacity:1;marker:none;enable-background:accumulate"
           d="m 42.678681,169.28431 1.371445,-1.20521"
           id="path4481"
           inkscape:connector-curvature="0" />
        <path
           style="color:#000000;display:inline;overflow:visible;visibility:visible;opacity:1;fill:#ffffff;fill-opacity:1;fill-rule:nonzero;stroke:#000000;stroke-width:1.05833328;stroke-linecap:butt;stroke-linejoin:miter;stroke-miterlimit:4;stroke-dasharray:none;stroke-dashoffset:0;stroke-opacity:1;marker:none;enable-background:accumulate"
           d="m 29.088914,180.75457 1.246768,-0.0416"
           id="path4483"
           inkscape:connector-curvature="0" />
      </g>
    </mask>
  </defs>
  <sodipodi:namedview
     id="base"
     pagecolor="#ffffff"
     bordercolor="#666666"
     borderopacity="1.0"
     inkscape:pageopacity="0.0"
     inkscape:pageshadow="2"
     inkscape:zoom="3.259629"
     inkscape:cx="-14.441828"
     inkscape:cy="128.90328"
     inkscape:document-units="px"
     inkscape:current-layer="layer1"
     showgrid="true"
     fit-margin-top="0"
     fit-margin-left="0"
     fit-margin-right="0"
     fit-margin-bottom="0"
     units="px"
     inkscape:snap-bbox="true"
     inkscape:bbox-paths="true"
     inkscape:bbox-nodes="true"
     inkscape:snap-bbox-edge-midpoints="true"
     inkscape:snap-bbox-midpoints="true"
     inkscape:object-nodes="true"
     inkscape:snap-others="false"
     inkscape:object-paths="true"
     inkscape:snap-intersection-paths="true"
     inkscape:snap-global="false"
     inkscape:snap-page="true"
     inkscape:snap-smooth-nodes="true">
    <inkscape:grid
       type="xygrid"
       id="grid4212"
       empspacing="6" />
  </sodipodi:namedview>
  <metadata
     id="metadata4963">
    <rdf:RDF>
      <cc:Work
         rdf:about="">
        <dc:format>image/svg+xml</dc:format>
        <dc:type
           rdf:resource="http://purl.org/dc/dcmitype/StillImage" />
        <dc:title></dc:title>
      </cc:Work>
    </rdf:RDF>
  </metadata>
  <g
     inkscape:label="Layer 1"
     inkscape:groupmode="layer"
     id="layer1"
     transform="translate(-20.278423,-157.50788)">
    <g
       inkscape:groupmode="maskhelper"
       id="g4433"
       mask="url(#mask4435)">
      <path
         d="m 53.456884,187.67956 c 0.101798,-1.38334 0.159037,-2.96303 0.159037,-4.77168 h 10e-7 v -3.175 c -3e-6,-17.4625 -4.481338,-20.6375 -15.875001,-20.6375 -10.867945,0 -15.874999,2.87659 -15.874999,19.05 v 3.175 5.82083 m 20.637499,11.64167 c 8.363063,-1.27669 9.525,-4.7625 9.525,-15.875 l 10e-7,-3.175 c 3e-6,-16.00799 -3.863324,-19.05 -14.287501,-19.05 -10.887837,0 -14.287499,4.1973 -14.287499,17.4625 v 3.175 c -0.0266,4.46842 0,6.87917 0.264583,10.84792 m 17.197916,5.02708 c 8.466667,0 9.525001,-4.7625 9.525001,-12.7 v -6.35 c -10e-7,-12.7 -3.349244,-15.83344 -12.700001,-15.875 -9.215973,0 -12.65416,3.12861 -12.65416,15.82583 0,1.01525 -0.04584,2.08856 -0.04584,3.22417 0,5.16002 -0.05598,8.44437 0.555765,13.47133 m 12.408818,0.287 c 0,0 1.058334,0.52917 2.910417,0.52917 6.614584,0 7.937501,-3.96875 7.937501,-9.525 v -9.525 c -1e-6,-9.525 -3.157622,-12.7 -11.112501,-12.7 -10.011179,0 -11.105635,5.735 -11.105635,14.30308 0,0.54525 -0.0069,2.56016 -0.0069,3.11781 0,7.40833 -0.02406,12.16432 1.295182,15.54754 m 8.229853,-4.65802 c 0,0 1.058333,1.85209 4.7625,1.85209 5.820834,0 6.350001,-4.7625 6.350001,-6.87917 v -11.37708 c 0,-3.175 -0.212783,-10.31875 -9.525001,-10.31875 -9.312218,0 -9.503722,6.83559 -9.525,11.1125 v 7.9375 c 0,7.40833 0.261797,10.4316 1.878937,13.30415 m 4.471063,-24.41665 c 0,0 0.79375,-1.5875 3.175,-1.5875 2.38125,0 3.175,1.5875 3.175,1.5875 m 0,14.2875 v -11.1125 c 0,0 0,-3.175 -3.175,-3.175 -3.175,0 -3.175,3.175 -3.175,3.175 v 12.7 c 0,7.67291 6.35,9.525 6.35,9.525 m -8.610038,-0.33209 c -1.127743,-1.91503 -2.502462,-3.63666 -2.502462,-12.36791 v -10.05417 c 0,-2.38125 0,-8.99583 7.9375,-8.99583 7.9375,0 7.937501,6.87916 7.937501,7.9375 v 12.7 c -0.0266,0.69154 -10e-7,4.7625 -4.762501,4.7625 -4.7625,0 -4.7625,-4.01776 -4.7625,-4.7625 v -11.1125 c 0,0 0,-1.5875 1.5875,-1.5875 1.5875,0 1.5875,1.5875 1.5875,1.5875 v 11.1125 c 0,0 0,1.5875 1.5875,1.5875 1.5875,0 1.5875,-1.5875 1.5875,-1.5875 v -12.7 c 0,0 0,-4.7625 -4.7625,-4.7625 -4.7625,0 -4.7625,4.7625 -4.7625,4.7625 v 13.49375 c 0,8.20208 4.497917,10.31875 4.497917,10.31875 m 0.264583,-22.225 v 11.1125 c 0,0 0,3.175 3.175,3.175 3.175,0 3.175001,-3.175 3.175001,-3.175 v -12.7 c 0,-0.6809 -10e-7,-6.35 -6.350001,-6.35 -6.35,0 -6.371278,5.6691 -6.35,6.35 v 11.64166 c 0,8.44261 1.645759,10.35574 3.603351,12.24949"
         style="color:#000000;display:inline;overflow:visible;visibility:visible;opacity:1;fill:none;fill-opacity:0;fill-rule:nonzero;stroke:#292929;stroke-width:0.5291667;stroke-linecap:butt;stroke-linejoin:miter;stroke-miterlimit:4;stroke-dasharray:none;stroke-dashoffset:0;stroke-opacity:1;marker:none;enable-background:accumulate"
         id="path4297"
         inkscape:connector-curvature="0" />
    </g>
  </g>
</svg>
