<?xml version="1.0" encoding="UTF-8" standalone="no"?>
<!-- Created with Inkscape (http://www.inkscape.org/) -->

<svg
   xmlns:dc="http://purl.org/dc/elements/1.1/"
   xmlns:cc="http://creativecommons.org/ns#"
   xmlns:rdf="http://www.w3.org/1999/02/22-rdf-syntax-ns#"
   xmlns:svg="http://www.w3.org/2000/svg"
   xmlns="http://www.w3.org/2000/svg"
   xmlns:sodipodi="http://sodipodi.sourceforge.net/DTD/sodipodi-0.dtd"
   xmlns:inkscape="http://www.inkscape.org/namespaces/inkscape"
   width="132"
   height="162"
   viewBox="0 0 34.924999 42.8625"
   id="svg4958"
   version="1.1"
   inkscape:version="0.91+devel r"
   sodipodi:docname="fingerprint_failed.svg">
  <defs
     id="defs4960">
    <clipPath
       clipPathUnits="userSpaceOnUse"
       id="clipPath4259">
      <path
         sodipodi:nodetypes="cccccccccccccccccccccccccccccccccccccccccccccccccc"
         style="color:#000000;display:inline;overflow:visible;visibility:visible;opacity:0.76399997;fill:#5e2c73;fill-opacity:1;fill-rule:nonzero;stroke:none;stroke-width:1.5875001;stroke-linecap:butt;stroke-linejoin:miter;stroke-miterlimit:4;stroke-dasharray:none;stroke-dashoffset:0;stroke-opacity:1;marker:none;enable-background:accumulate"
         d="m 20.278423,166.50371 v 33.86667 H 54.14509 v -33.86667 z m 15.094686,1.94148 0.63252,2.32648 -1.532723,0.41599 -0.630969,-2.32647 z m -9.388574,0.24598 2.826184,2.19367 -0.973068,1.25367 -2.826183,-2.19315 z m 21.93923,0.52194 1.031462,1.20664 -2.062409,1.76165 -1.03146,-1.20664 z m -17.65422,4.7811 1.894458,1.16375 -0.829924,1.35186 -1.896525,-1.16221 z m 21.642607,6.06836 0.101285,1.58389 -2.593641,0.16588 -0.101285,-1.58389 z m -5.650301,0.43925 0.230477,1.57045 -2.259811,0.33228 -0.230477,-1.57045 z m -4.887041,4.31447 2.093929,0.13281 -0.101802,1.58388 -2.093413,-0.13281 z m -8.329724,0.21497 1.794722,1.29708 -0.929659,1.28674 -1.794722,-1.29656 z m 12.054561,7.4042 1.927532,1.33015 -0.900204,1.3069 -1.929598,-1.33015 z"
         id="path4261"
         inkscape:connector-curvature="0" />
    </clipPath>
    <mask
       maskUnits="userSpaceOnUse"
       id="mask4435">
      <g
         style="opacity:1;stroke-width:0.99999994"
         id="g4485">
        <rect
           style="color:#000000;display:inline;overflow:visible;visibility:visible;opacity:1;fill:#ffffff;fill-opacity:1;fill-rule:nonzero;stroke:none;stroke-width:0.52916664;stroke-linecap:butt;stroke-linejoin:miter;stroke-miterlimit:4;stroke-dasharray:none;stroke-dashoffset:0;stroke-opacity:1;marker:none;enable-background:accumulate"
           id="rect4437"
           width="34.924999"
           height="42.862499"
           x="20.278423"
           y="157.50787" />
        <path
           sodipodi:nodetypes="cc"
           style="color:#000000;display:inline;overflow:visible;visibility:visible;opacity:1;fill:#ffffff;fill-opacity:1;fill-rule:nonzero;stroke:#000000;stroke-width:1.05833328;stroke-linecap:butt;stroke-linejoin:miter;stroke-miterlimit:4;stroke-dasharray:none;stroke-dashoffset:0;stroke-opacity:1;marker:none;enable-background:accumulate"
           d="m 54.539496,175.15365 -1.812832,0.0989"
           id="path4439"
           inkscape:connector-curvature="0" />
        <path
           style="color:#000000;display:inline;overflow:visible;visibility:visible;opacity:1;fill:#ffffff;fill-opacity:1;fill-rule:nonzero;stroke:#000000;stroke-width:1.05833328;stroke-linecap:butt;stroke-linejoin:miter;stroke-miterlimit:4;stroke-dasharray:none;stroke-dashoffset:0;stroke-opacity:1;marker:none;enable-background:accumulate"
           d="m 35.156517,158.18807 0.08312,1.74548"
           id="path4441"
           inkscape:connector-curvature="0" />
        <path
           style="color:#000000;display:inline;overflow:visible;visibility:visible;opacity:1;fill:#ffffff;fill-opacity:1;fill-rule:nonzero;stroke:#000000;stroke-width:1.05833328;stroke-linecap:butt;stroke-linejoin:miter;stroke-miterlimit:4;stroke-dasharray:none;stroke-dashoffset:0;stroke-opacity:1;marker:none;enable-background:accumulate"
           d="m 21.525191,168.66092 1.91171,0.45715"
           id="path4443"
           inkscape:connector-curvature="0" />
        <path
           style="color:#000000;display:inline;overflow:visible;visibility:visible;opacity:1;fill:#ffffff;fill-opacity:1;fill-rule:nonzero;stroke:#000000;stroke-width:1.05833328;stroke-linecap:butt;stroke-linejoin:miter;stroke-miterlimit:4;stroke-dasharray:none;stroke-dashoffset:0;stroke-opacity:1;marker:none;enable-background:accumulate"
           d="M 22.647281,180.67145 H 24.22652"
           id="path4445"
           inkscape:connector-curvature="0" />
        <path
           style="color:#000000;display:inline;overflow:visible;visibility:visible;opacity:1;fill:#ffffff;fill-opacity:1;fill-rule:nonzero;stroke:#000000;stroke-width:1.05833328;stroke-linecap:butt;stroke-linejoin:miter;stroke-miterlimit:4;stroke-dasharray:none;stroke-dashoffset:0;stroke-opacity:1;marker:none;enable-background:accumulate"
           d="m 46.543661,161.51279 -0.706502,1.24677"
           id="path4447"
           inkscape:connector-curvature="0" />
        <path
           style="color:#000000;display:inline;overflow:visible;visibility:visible;opacity:1;fill:#ffffff;fill-opacity:1;fill-rule:nonzero;stroke:#000000;stroke-width:1.05833328;stroke-linecap:butt;stroke-linejoin:miter;stroke-miterlimit:4;stroke-dasharray:none;stroke-dashoffset:0;stroke-opacity:1;marker:none;enable-background:accumulate"
           d="m 30.4188,162.88423 0.498707,1.24677"
           id="path4449"
           inkscape:connector-curvature="0" />
        <path
           style="color:#000000;display:inline;overflow:visible;visibility:visible;opacity:1;fill:#ffffff;fill-opacity:1;fill-rule:nonzero;stroke:#000000;stroke-width:1.05833328;stroke-linecap:butt;stroke-linejoin:miter;stroke-miterlimit:4;stroke-dasharray:none;stroke-dashoffset:0;stroke-opacity:1;marker:none;enable-background:accumulate"
           d="m 26.013554,189.02479 h 1.454562"
           id="path4451"
           inkscape:connector-curvature="0" />
        <path
           style="color:#000000;display:inline;overflow:visible;visibility:visible;opacity:1;fill:#ffffff;fill-opacity:1;fill-rule:nonzero;stroke:#000000;stroke-width:1.05833328;stroke-linecap:butt;stroke-linejoin:miter;stroke-miterlimit:4;stroke-dasharray:none;stroke-dashoffset:0;stroke-opacity:1;marker:none;enable-background:accumulate"
           d="m 47.416399,194.34434 1.080532,1.12209"
           id="path4453"
           inkscape:connector-curvature="0" />
        <path
           style="color:#000000;display:inline;overflow:visible;visibility:visible;opacity:1;fill:#ffffff;fill-opacity:1;fill-rule:nonzero;stroke:#000000;stroke-width:1.05833328;stroke-linecap:butt;stroke-linejoin:miter;stroke-miterlimit:4;stroke-dasharray:none;stroke-dashoffset:0;stroke-opacity:1;marker:none;enable-background:accumulate"
           d="m 48.081342,179.21689 h 1.579237"
           id="path4455"
           inkscape:connector-curvature="0" />
        <path
           style="color:#000000;display:inline;overflow:visible;visibility:visible;opacity:1;fill:#ffffff;fill-opacity:1;fill-rule:nonzero;stroke:#000000;stroke-width:1.05833328;stroke-linecap:butt;stroke-linejoin:miter;stroke-miterlimit:4;stroke-dasharray:none;stroke-dashoffset:0;stroke-opacity:1;marker:none;enable-background:accumulate"
           d="m 39.935793,164.75438 -0.249354,1.49613"
           id="path4457"
           inkscape:connector-curvature="0" />
        <path
           style="color:#000000;display:inline;overflow:visible;visibility:visible;opacity:1;fill:#ffffff;fill-opacity:1;fill-rule:nonzero;stroke:#000000;stroke-width:1.05833328;stroke-linecap:butt;stroke-linejoin:miter;stroke-miterlimit:4;stroke-dasharray:none;stroke-dashoffset:0;stroke-opacity:1;marker:none;enable-background:accumulate"
           d="m 29.047355,174.72853 1.53768,0.0416"
           id="path4459"
           inkscape:connector-curvature="0" />
        <path
           style="color:#000000;display:inline;overflow:visible;visibility:visible;opacity:1;fill:#ffffff;fill-opacity:1;fill-rule:nonzero;stroke:#000000;stroke-width:1.05833328;stroke-linecap:butt;stroke-linejoin:miter;stroke-miterlimit:4;stroke-dasharray:none;stroke-dashoffset:0;stroke-opacity:1;marker:none;enable-background:accumulate"
           d="m 31.499332,193.92875 1.205208,-0.29092"
           id="path4461"
           inkscape:connector-curvature="0" />
        <path
           style="color:#000000;display:inline;overflow:visible;visibility:visible;opacity:1;fill:#ffffff;fill-opacity:1;fill-rule:nonzero;stroke:#000000;stroke-width:1.05833328;stroke-linecap:butt;stroke-linejoin:miter;stroke-miterlimit:4;stroke-dasharray:none;stroke-dashoffset:0;stroke-opacity:1;marker:none;enable-background:accumulate"
           d="m 33.992867,186.40658 h 1.205209"
           id="path4463"
           inkscape:connector-curvature="0" />
        <path
           style="color:#000000;display:inline;overflow:visible;visibility:visible;opacity:1;fill:#ffffff;fill-opacity:1;fill-rule:nonzero;stroke:#000000;stroke-width:1.05833328;stroke-linecap:butt;stroke-linejoin:miter;stroke-miterlimit:4;stroke-dasharray:none;stroke-dashoffset:0;stroke-opacity:1;marker:none;enable-background:accumulate"
           d="m 36.985109,181.08704 h 1.329886"
           id="path4465"
           inkscape:connector-curvature="0" />
        <path
           style="color:#000000;display:inline;overflow:visible;visibility:visible;opacity:1;fill:#ffffff;fill-opacity:1;fill-rule:nonzero;stroke:#000000;stroke-width:1.05833328;stroke-linecap:butt;stroke-linejoin:miter;stroke-miterlimit:4;stroke-dasharray:none;stroke-dashoffset:0;stroke-opacity:1;marker:none;enable-background:accumulate"
           d="m 40.226705,184.99358 h 1.371444"
           id="path4467"
           inkscape:connector-curvature="0" />
        <path
           style="color:#000000;display:inline;overflow:visible;visibility:visible;opacity:1;fill:#ffffff;fill-opacity:1;fill-rule:nonzero;stroke:#000000;stroke-width:1.05833328;stroke-linecap:butt;stroke-linejoin:miter;stroke-miterlimit:4;stroke-dasharray:none;stroke-dashoffset:0;stroke-opacity:1;marker:none;enable-background:accumulate"
           d="m 35.114958,170.07393 0.659721,1.14267"
           id="path4469"
           inkscape:connector-curvature="0" />
        <path
           style="color:#000000;display:inline;overflow:visible;visibility:visible;opacity:1;fill:#ffffff;fill-opacity:1;fill-rule:nonzero;stroke:#000000;stroke-width:1.05833328;stroke-linecap:butt;stroke-linejoin:miter;stroke-miterlimit:4;stroke-dasharray:none;stroke-dashoffset:0;stroke-opacity:1;marker:none;enable-background:accumulate"
           d="m 43.343624,174.47917 1.371444,-0.37403"
           id="path4471"
           inkscape:connector-curvature="0" />
        <path
           style="color:#000000;display:inline;overflow:visible;visibility:visible;opacity:1;fill:#ffffff;fill-opacity:1;fill-rule:nonzero;stroke:#000000;stroke-width:1.05833328;stroke-linecap:butt;stroke-linejoin:miter;stroke-miterlimit:4;stroke-dasharray:none;stroke-dashoffset:0;stroke-opacity:1;marker:none;enable-background:accumulate"
           d="m 43.052711,190.97806 0.623384,1.24677"
           id="path4473"
           inkscape:connector-curvature="0" />
        <path
           style="color:#000000;display:inline;overflow:visible;visibility:visible;opacity:1;fill:#ffffff;fill-opacity:1;fill-rule:nonzero;stroke:#000000;stroke-width:1.05833328;stroke-linecap:butt;stroke-linejoin:miter;stroke-miterlimit:4;stroke-dasharray:none;stroke-dashoffset:0;stroke-opacity:1;marker:none;enable-background:accumulate"
           d="m 27.260322,167.91286 1.454562,0.7065"
           id="path4475"
           inkscape:connector-curvature="0" />
        <path
           style="color:#000000;display:inline;overflow:visible;visibility:visible;opacity:1;fill:#ffffff;fill-opacity:1;fill-rule:nonzero;stroke:#000000;stroke-width:1.05833328;stroke-linecap:butt;stroke-linejoin:miter;stroke-miterlimit:4;stroke-dasharray:none;stroke-dashoffset:0;stroke-opacity:1;marker:none;enable-background:accumulate"
           d="m 48.45537,169.07651 1.620798,-0.66494"
           id="path4477"
           inkscape:connector-curvature="0" />
        <path
           style="color:#000000;display:inline;overflow:visible;visibility:visible;opacity:1;fill:#ffffff;fill-opacity:1;fill-rule:nonzero;stroke:#000000;stroke-width:1.05833328;stroke-linecap:butt;stroke-linejoin:miter;stroke-miterlimit:4;stroke-dasharray:none;stroke-dashoffset:0;stroke-opacity:1;marker:none;enable-background:accumulate"
           d="m 39.478644,172.98305 -0.706501,1.16365"
           id="path4479"
           inkscape:connector-curvature="0" />
        <path
           style="color:#000000;display:inline;overflow:visible;visibility:visible;opacity:1;fill:#ffffff;fill-opacity:1;fill-rule:nonzero;stroke:#000000;stroke-width:1.05833328;stroke-linecap:butt;stroke-linejoin:miter;stroke-miterlimit:4;stroke-dasharray:none;stroke-dashoffset:0;stroke-opacity:1;marker:none;enable-background:accumulate"
           d="m 42.678681,169.28431 1.371445,-1.20521"
           id="path4481"
           inkscape:connector-curvature="0" />
        <path
           style="color:#000000;display:inline;overflow:visible;visibility:visible;opacity:1;fill:#ffffff;fill-opacity:1;fill-rule:nonzero;stroke:#000000;stroke-width:1.05833328;stroke-linecap:butt;stroke-linejoin:miter;stroke-miterlimit:4;stroke-dasharray:none;stroke-dashoffset:0;stroke-opacity:1;marker:none;enable-background:accumulate"
           d="m 29.088914,180.75457 1.246768,-0.0416"
           id="path4483"
           inkscape:connector-curvature="0" />
      </g>
    </mask>
    <clipPath
       clipPathUnits="userSpaceOnUse"
       id="clipPath4293">
      <g
         inkscape:label="Clip"
         id="use4295">
        <g
           mask="url(#mask4435)"
           id="g4302"
           inkscape:groupmode="maskhelper">
          <path
             inkscape:connector-curvature="0"
             id="path4300"
             style="color:#000000;display:inline;overflow:visible;visibility:visible;opacity:1;fill:none;fill-opacity:0;fill-rule:nonzero;stroke:#292929;stroke-width:0.5291667;stroke-linecap:butt;stroke-linejoin:miter;stroke-miterlimit:4;stroke-dasharray:none;stroke-dashoffset:0;stroke-opacity:1;marker:none;enable-background:accumulate"
             d="m 53.456884,187.67956 c 0.101798,-1.38334 0.159037,-2.96303 0.159037,-4.77168 h 10e-7 v -3.175 c -3e-6,-17.4625 -4.481338,-20.6375 -15.875001,-20.6375 -10.867945,0 -15.874999,2.87659 -15.874999,19.05 v 3.175 5.82083 m 20.637499,11.64167 c 8.363063,-1.27669 9.525,-4.7625 9.525,-15.875 l 10e-7,-3.175 c 3e-6,-16.00799 -3.863324,-19.05 -14.287501,-19.05 -10.887837,0 -14.287499,4.1973 -14.287499,17.4625 v 3.175 c -0.0266,4.46842 0,6.87917 0.264583,10.84792 m 17.197916,5.02708 c 8.466667,0 9.525001,-4.7625 9.525001,-12.7 v -6.35 c -10e-7,-12.7 -3.349244,-15.83344 -12.700001,-15.875 -9.215973,0 -12.65416,3.12861 -12.65416,15.82583 0,1.01525 -0.04584,2.08856 -0.04584,3.22417 0,5.16002 -0.05598,8.44437 0.555765,13.47133 m 12.408818,0.287 c 0,0 1.058334,0.52917 2.910417,0.52917 6.614584,0 7.937501,-3.96875 7.937501,-9.525 v -9.525 c -1e-6,-9.525 -3.157622,-12.7 -11.112501,-12.7 -10.011179,0 -11.105635,5.735 -11.105635,14.30308 0,0.54525 -0.0069,2.56016 -0.0069,3.11781 0,7.40833 -0.02406,12.16432 1.295182,15.54754 m 8.229853,-4.65802 c 0,0 1.058333,1.85209 4.7625,1.85209 5.820834,0 6.350001,-4.7625 6.350001,-6.87917 v -11.37708 c 0,-3.175 -0.212783,-10.31875 -9.525001,-10.31875 -9.312218,0 -9.503722,6.83559 -9.525,11.1125 v 7.9375 c 0,7.40833 0.261797,10.4316 1.878937,13.30415 m 4.471063,-24.41665 c 0,0 0.79375,-1.5875 3.175,-1.5875 2.38125,0 3.175,1.5875 3.175,1.5875 m 0,14.2875 v -11.1125 c 0,0 0,-3.175 -3.175,-3.175 -3.175,0 -3.175,3.175 -3.175,3.175 v 12.7 c 0,7.67291 6.35,9.525 6.35,9.525 m -8.610038,-0.33209 c -1.127743,-1.91503 -2.502462,-3.63666 -2.502462,-12.36791 v -10.05417 c 0,-2.38125 0,-8.99583 7.9375,-8.99583 7.9375,0 7.937501,6.87916 7.937501,7.9375 v 12.7 c -0.0266,0.69154 -10e-7,4.7625 -4.762501,4.7625 -4.7625,0 -4.7625,-4.01776 -4.7625,-4.7625 v -11.1125 c 0,0 0,-1.5875 1.5875,-1.5875 1.5875,0 1.5875,1.5875 1.5875,1.5875 v 11.1125 c 0,0 0,1.5875 1.5875,1.5875 1.5875,0 1.5875,-1.5875 1.5875,-1.5875 v -12.7 c 0,0 0,-4.7625 -4.7625,-4.7625 -4.7625,0 -4.7625,4.7625 -4.7625,4.7625 v 13.49375 c 0,8.20208 4.497917,10.31875 4.497917,10.31875 m 0.264583,-22.225 v 11.1125 c 0,0 0,3.175 3.175,3.175 3.175,0 3.175001,-3.175 3.175001,-3.175 v -12.7 c 0,-0.6809 -10e-7,-6.35 -6.350001,-6.35 -6.35,0 -6.371278,5.6691 -6.35,6.35 v 11.64166 c 0,8.44261 1.645759,10.35574 3.603351,12.24949" />
        </g>
      </g>
    </clipPath>
  </defs>
  <sodipodi:namedview
     id="base"
     pagecolor="#ffffff"
     bordercolor="#666666"
     borderopacity="1.0"
     inkscape:pageopacity="0.0"
     inkscape:pageshadow="2"
     inkscape:zoom="5.0931703"
     inkscape:cx="-86.512913"
     inkscape:cy="55.569881"
     inkscape:document-units="px"
     inkscape:current-layer="layer1"
     showgrid="true"
     fit-margin-top="0"
     fit-margin-left="0"
     fit-margin-right="0"
     fit-margin-bottom="0"
     units="px"
     inkscape:snap-bbox="true"
     inkscape:bbox-paths="true"
     inkscape:bbox-nodes="true"
     inkscape:snap-bbox-edge-midpoints="true"
     inkscape:snap-bbox-midpoints="true"
     inkscape:object-nodes="false"
     inkscape:snap-others="false"
     inkscape:object-paths="true"
     inkscape:snap-intersection-paths="true"
     inkscape:snap-global="true"
     inkscape:snap-page="true"
     inkscape:snap-smooth-nodes="false">
    <inkscape:grid
       type="xygrid"
       id="grid4212"
       empspacing="6" />
  </sodipodi:namedview>
  <metadata
     id="metadata4963">
    <rdf:RDF>
      <cc:Work
         rdf:about="">
        <dc:format>image/svg+xml</dc:format>
        <dc:type
           rdf:resource="http://purl.org/dc/dcmitype/StillImage" />
        <dc:title />
      </cc:Work>
    </rdf:RDF>
  </metadata>
  <g
     inkscape:label="Layer 1"
     inkscape:groupmode="layer"
     id="layer1"
     transform="translate(-20.278423,-157.50788)">
    <path
       style="color:#000000;font-style:normal;font-variant:normal;font-weight:normal;font-stretch:normal;font-size:medium;line-height:normal;font-family:sans-serif;font-variant-ligatures:normal;font-variant-position:normal;font-variant-caps:normal;font-variant-numeric:normal;font-variant-alternates:normal;font-feature-settings:normal;text-indent:0;text-align:start;text-decoration:none;text-decoration-line:none;text-decoration-style:solid;text-decoration-color:#000000;letter-spacing:normal;word-spacing:normal;text-transform:none;writing-mode:lr-tb;direction:ltr;text-orientation:mixed;dominant-baseline:auto;baseline-shift:baseline;text-anchor:start;white-space:normal;shape-padding:0;clip-rule:nonzero;display:inline;overflow:visible;visibility:visible;opacity:1;isolation:auto;mix-blend-mode:normal;color-interpolation:sRGB;color-interpolation-filters:linearRGB;solid-color:#000000;solid-opacity:1;fill:#3b3b3b;fill-opacity:1;fill-rule:nonzero;stroke:none;stroke-width:2.00000024;stroke-linecap:butt;stroke-linejoin:miter;stroke-miterlimit:4;stroke-dasharray:none;stroke-dashoffset:0;stroke-opacity:1;marker:none;color-rendering:auto;image-rendering:auto;shape-rendering:auto;text-rendering:auto;enable-background:accumulate"
       d="M 65.998047 4.9980469 C 63.364602 4.9980469 60.818784 5.0427925 58.357422 5.1425781 L 58.451172 7.1425781 C 60.874082 7.0444778 63.387606 6.9980421 65.998047 6.9980469 C 87.436491 6.9980091 102.04817 9.9720494 111.38867 20.898438 C 118.75782 29.518735 122.95958 43.359413 124.41016 64.966797 L 126.41602 64.857422 C 124.96779 42.994787 120.72051 28.73603 112.91016 19.599609 C 103.01633 8.0259781 87.622266 4.9980469 65.998047 4.9980469 z M 54.365234 5.3671875 C 39.502877 6.3981685 28.017135 9.8392455 19.875 18.388672 C 14.743204 23.777156 11.004725 31.120494 8.5566406 41.015625 L 10.513672 41.484375 C 12.896533 31.865729 16.492689 24.838728 21.322266 19.767578 C 28.989022 11.717331 39.91681 8.3794564 54.458984 7.3652344 L 54.365234 5.3671875 z M 65.998047 10.998047 C 45.294108 10.998047 31.400832 15.018865 22.791016 25.5625 C 14.181195 36.106135 11.001953 52.842582 11.001953 77.996094 L 11.001953 85.548828 L 13.001953 85.548828 L 13.001953 77.996094 C 13.001953 53.013416 16.239336 36.75435 24.341797 26.832031 C 32.444257 16.909713 45.551109 13 65.998047 13 C 78.309891 13 88.05169 14.123089 95.65625 17.460938 L 96.638672 15.726562 C 88.629013 12.166079 78.489272 10.998047 65.998047 10.998047 z M 65.998047 17 C 55.838174 17 47.432017 18.017813 40.619141 20.667969 L 41.359375 22.519531 C 47.836195 19.998154 55.943015 19 65.998047 19 C 83.557604 19.078236 95.168703 22.034299 102.48633 30.701172 C 104.80263 33.444555 106.70123 36.799978 108.2207 40.855469 L 110.08789 40.087891 C 108.49961 35.88059 106.49201 32.351317 104.01367 29.416016 C 96.16666 20.122119 83.785794 17.07903 66.003906 17 L 65.998047 17 z M 100.19141 17.5625 L 99.210938 19.292969 C 102.17378 21.046785 104.76871 23.226726 107.00391 25.947266 C 115.30946 36.056255 119 53.827174 119 83.998047 L 119 96.001953 C 119 96.295779 118.9946 96.554739 118.99414 96.845703 A 37 37 0 0 1 120.98047 98.697266 C 120.98492 97.787917 121 96.939311 121 96.001953 L 121 83.998047 C 121 53.66628 117.39171 35.443076 108.54688 24.677734 C 106.14517 21.754553 103.35624 19.426666 100.19141 17.5625 z M 36.96875 22.3125 C 33.614814 24.083344 30.720219 26.365963 28.261719 29.261719 C 20.394522 38.528138 17.173828 53.727498 17.173828 77.8125 C 17.173828 81.61958 16.996094 85.68102 16.996094 90 C 16.996094 109.49522 16.788141 121.98042 19.107422 141.03906 L 21.09375 140.79492 C 18.788835 121.8545 18.996094 109.50969 18.996094 90 C 18.996094 85.734841 19.173828 81.679788 19.173828 77.8125 C 19.173828 53.908008 22.450894 39.203835 29.789062 30.560547 C 32.023526 27.928677 34.655577 25.834821 37.716797 24.185547 L 36.970703 22.3125 L 36.96875 22.3125 z M 65.998047 23.001953 C 46.888332 23.001953 35.922833 28.580768 29.966797 38.363281 C 29.892563 38.485207 29.828556 38.615149 29.755859 38.738281 L 31.5625 39.613281 C 31.603187 39.545193 31.63851 39.471927 31.679688 39.404297 C 37.251297 30.253191 47.270238 25.001953 65.998047 25.001953 C 80.897848 25.001953 91.047881 27.953266 97.533203 35.167969 C 104.01853 42.382671 106.99609 54.112466 106.99609 72.001953 L 106.99609 80.048828 L 108.99609 80.048828 L 108.99609 72.001953 C 108.99609 53.891477 106.01388 41.615414 99.015625 33.830078 C 92.017372 26.04478 81.163934 23.001953 65.998047 23.001953 z M 65.998047 29.003906 C 48.155475 29.003906 38.702321 35.688351 33.953125 44.460938 C 29.203926 53.233561 29.040271 63.901479 29 71.996094 L 29 102.00195 C 29 130.02553 29.997845 141.69733 36.234375 152.77539 L 37.976562 151.79297 C 31.989046 141.15726 31 129.97839 31 102.00195 L 31 72.001953 C 31.040139 63.931906 31.27725 53.600294 35.708984 45.414062 C 40.140738 37.227832 48.644837 31.003906 65.998047 31.003906 C 67.990804 31.003906 69.85366 31.099302 71.621094 31.263672 L 71.951172 29.292969 C 70.075756 29.108378 68.100068 29.003906 65.998047 29.003906 z M 75.912109 29.845703 L 75.589844 31.796875 C 86.655852 33.753487 92.791322 39.15439 96.322266 45.486328 C 100.76561 53.454442 101.00195 63.020384 101.00195 68.998047 L 101.00195 88.533203 A 37 37 0 0 1 103.00195 88.904297 L 103.00195 68.998047 C 103.00195 62.97571 102.82997 53.043587 98.072266 44.511719 C 94.287546 37.724664 87.507052 31.935533 75.912109 29.845703 z M 65.998047 34.996094 L 65.998047 34.998047 C 50.72027 34.998047 42.752031 41.518193 38.861328 49.169922 C 36.485907 53.841569 35.580119 58.887677 35.228516 63.140625 L 37.242188 63.193359 C 37.590761 59.116415 38.45452 54.37733 40.640625 50.078125 C 44.249923 42.97987 51.275827 36.998009 65.998047 36.998047 C 74.384997 36.998047 80.275669 39.029337 84.464844 42.021484 L 85.955078 40.710938 C 81.374863 37.327824 74.951781 34.996094 65.998047 34.996094 z M 65.998047 40.998047 C 53.700458 40.998047 47.234472 46.630507 44.087891 52.566406 C 40.941309 58.502268 40.958712 64.647489 41.001953 66.03125 L 41.001953 109.99805 C 41.001953 121.08276 41.759654 129.19147 43.060547 135.4375 L 45.007812 134.96875 C 43.75552 128.91653 43.001953 120.95916 43.001953 109.99805 L 43.001953 65.986328 L 43.001953 65.970703 C 42.964914 64.780983 42.977965 58.924694 45.851562 53.503906 C 48.725089 48.083157 54.295639 42.998047 65.998047 42.998047 C 77.700458 42.998047 83.249197 48.082854 86.113281 53.503906 C 87.624929 56.365107 88.33482 59.309811 88.677734 61.660156 L 90.632812 61.125 C 90.25173 58.651041 89.474991 55.576304 87.884766 52.566406 C 84.748846 46.630809 78.295639 40.998047 65.998047 40.998047 z M 27.923828 42.294922 C 23.777793 51.677164 23.027344 63.893233 23.027344 78.056641 C 23.027344 80.108962 22.998047 87.729772 22.998047 89.845703 C 22.998047 100.22617 22.982007 109.22369 23.21875 117.12109 L 25.238281 117.12109 C 24.995308 109.26083 24.998047 100.256 24.998047 89.845703 C 24.998047 87.746289 25.027344 80.125856 25.027344 78.056641 C 25.027344 64.001545 25.849182 52.067805 29.734375 43.175781 L 27.923828 42.294922 z M 88.996094 43.365234 L 87.517578 44.662109 C 89.115068 46.318267 90.377964 48.124412 91.369141 49.974609 C 94.978737 56.712524 95 64.00194 95 66.001953 L 95 88 A 37 37 0 0 1 95.001953 88 A 37 37 0 0 1 97.001953 88.099609 L 97.001953 66 C 97.001953 63.999987 97.023221 56.291357 93.132812 49.029297 C 92.078509 47.061261 90.712651 45.136136 88.996094 43.365234 z M 111.3418 43.896484 L 109.46484 44.667969 C 111.87608 53.01813 112.99805 63.897535 112.99805 77.996094 L 112.99805 92.6875 A 37 37 0 0 1 114.99805 93.914062 L 114.99805 77.996094 C 114.99805 63.698292 113.8813 52.554584 111.3418 43.896484 z M 7.6855469 44.921875 C 5.8805959 53.910802 5 64.799611 5 77.996094 L 5 90 L 5 111.99805 L 7.0019531 111.99805 L 7.0019531 90 L 7.0019531 77.996094 C 7.0019531 64.900628 7.8838222 54.176186 9.6445312 45.388672 L 7.6855469 44.921875 z M 65.998047 47 C 63.210605 47 60.823277 47.437543 58.771484 48.166016 L 59.771484 49.898438 C 61.530244 49.336 63.579307 49 65.998047 49 C 74.664715 49 78.726679 53.18382 80.857422 57.445312 C 82.988165 61.706806 82.998047 66.001953 82.998047 66.001953 L 82.998047 90.046875 A 37 37 0 0 1 84.998047 89.382812 L 84.998047 66.001953 C 84.998047 66.001953 85.013717 61.291242 82.644531 56.552734 C 80.275274 51.814227 75.331382 47 65.998047 47 z M 55.173828 49.933594 C 52.41988 51.736838 50.559154 54.153181 49.359375 56.552734 C 46.990118 61.291242 46.996094 66.001953 46.996094 66.001953 L 46.996094 117.00195 C 46.996094 132.68476 51.319014 142.66281 55.691406 148.70703 C 60.063798 154.75121 64.572266 156.90234 64.572266 156.90234 L 65.429688 155.09375 C 65.429688 155.09375 61.436205 153.24686 57.308594 147.54102 C 53.180987 141.83521 48.996094 132.31917 48.996094 117.00195 L 48.996094 66.001953 C 48.996094 66.001953 49.013789 61.706806 51.144531 57.445312 C 52.213032 55.308308 53.767406 53.191351 56.142578 51.611328 L 55.173828 49.933594 z M 65.998047 53.001953 C 61.275826 53.001953 58.029318 54.598832 56.001953 56.220703 C 53.974588 57.842612 53.109375 59.548828 53.109375 59.548828 L 54.894531 60.449219 C 54.894531 60.449219 55.527367 59.155473 57.25 57.777344 C 58.972637 56.399252 61.720272 55.001953 65.998047 55.001953 C 70.275826 55.001953 73.029316 56.399252 74.751953 57.777344 C 76.474586 59.155473 77.107422 60.449219 77.107422 60.449219 L 78.894531 59.548828 C 78.894531 59.548828 78.027365 57.842612 76 56.220703 C 73.972635 54.598832 70.720272 53.001953 65.998047 53.001953 z M 65.998047 59.003906 C 59.664715 59.003906 56.226681 62.312293 54.607422 65.550781 C 52.988166 68.789307 52.998047 72.001953 52.998047 72.001953 L 52.998047 107.22266 L 54.998047 107.22266 L 54.998047 72.001953 C 54.998047 72.001953 55.013715 69.204833 56.394531 66.443359 C 57.775272 63.681885 60.331382 61.003906 65.998047 61.003906 C 66.941694 61.003906 67.791843 61.084113 68.572266 61.220703 L 69.658203 59.429688 C 68.559828 59.161379 67.348916 59.003906 65.998047 59.003906 z M 73.378906 61.009766 L 72.373047 62.666016 C 73.91492 63.683374 74.913703 65.052018 75.609375 66.443359 C 76.99012 69.204833 76.996094 72.001953 76.996094 72.001953 L 76.996094 92.726562 A 37 37 0 0 1 78.996094 91.677734 L 78.996094 72.001953 C 78.996094 72.001953 79.01379 68.789307 77.394531 65.550781 C 76.572877 63.907484 75.279597 62.24789 73.378906 61.009766 z M 65.998047 64.998047 C 62.664715 64.998047 60.724726 66.816179 59.855469 68.554688 C 58.986211 70.293232 59 72.001953 59 72.001953 L 59 113.99805 C 59 114.45315 59.006606 115.27841 59.083984 116.30273 A 37 37 0 0 1 61 110.42969 L 61 72.001953 C 61 72.001953 61.011692 70.710712 61.642578 69.449219 C 62.273321 68.187726 63.331382 66.998009 65.998047 66.998047 C 68.664715 66.998047 69.722773 68.187726 70.353516 69.449219 C 70.984258 70.710712 71.001953 72.001953 71.001953 72.001953 L 71.001953 96.896484 A 37 37 0 0 1 73.001953 95.302734 L 73.001953 72.001953 C 73.001953 72.001953 73.015632 70.293232 72.146484 68.554688 C 71.277227 66.816179 69.331382 64.998047 65.998047 64.998047 z M 90.980469 65.177734 L 88.992188 65.720703 C 88.992444 65.786875 89 65.948139 89 66 L 89 88.503906 A 37 37 0 0 1 91 88.259766 L 91 66.001953 C 91 65.855358 90.984628 65.444509 90.980469 65.177734 z M 35.029297 67.138672 C 35.007767 68.197455 35 69.186627 35 70.001953 L 35 85.804688 L 37.001953 85.736328 L 37.001953 70.001953 C 37.001953 69.190808 37.010473 68.221547 37.033203 67.191406 L 35.029297 67.138672 z M 126.64453 68.849609 L 124.64258 68.960938 C 124.87445 73.635654 125 78.61654 125 83.998047 L 125 96.001953 C 125 98.562868 124.96055 100.96148 124.90234 103.2832 A 37 37 0 0 1 126.80469 106.17383 C 126.90015 103.2898 126.95351 100.22621 126.96484 96.998047 L 127.00195 96.998047 L 127.00195 96.001953 L 127.00195 83.998047 C 127.00195 78.587366 126.87563 73.569134 126.64453 68.849609 z M 65 72.001953 L 65 87.121094 L 67.001953 87.121094 L 67.001953 72.001953 L 65 72.001953 z M 106.99609 84.050781 L 106.99609 90.039062 A 37 37 0 0 1 108.99609 90.769531 L 108.99609 84.050781 L 106.99609 84.050781 z M 11.001953 89.548828 L 11.001953 89.992188 L 11.001953 90 C 10.901455 106.88882 10.996578 116.04476 11.998047 131.06445 L 14 130.93164 C 13.001494 115.95402 12.901455 106.89021 13.001953 90.007812 L 13.001953 90 L 13.001953 89.548828 L 11.001953 89.548828 z M 37.001953 89.740234 L 35 89.806641 L 35 107.99609 C 35 124.54857 36.301181 134.51299 38.167969 141.29688 C 40.034761 148.08071 42.490154 151.6771 44.597656 155.25586 L 46.316406 154.23633 C 44.161573 150.57718 41.890439 147.29473 40.09375 140.76562 C 38.297061 134.23653 37.001953 124.44362 37.001953 107.99609 L 37.001953 89.740234 z M 65 91.115234 L 65 103.4043 A 37 37 0 0 1 67.001953 100.84375 L 67.001953 91.115234 L 65 91.115234 z M 52.998047 111.22266 L 52.998047 120 C 52.998047 134.77587 59.167549 144.09896 65.333984 149.62305 C 68.467651 152.4303 71.605278 154.27234 73.943359 155.41211 A 37 37 0 0 1 64.865234 146.38477 C 59.69155 141.03813 54.998047 132.75013 54.998047 120 L 54.998047 111.22266 L 52.998047 111.22266 z M 23.365234 121.12109 C 23.872971 132.58613 25.082494 141.56997 27.966797 148.9668 L 29.826172 148.24219 C 27.081448 141.2033 25.897729 132.44151 25.386719 121.12109 L 23.365234 121.12109 z M 45.943359 138.85742 L 44 139.32812 C 44.344542 140.54923 44.705441 141.71579 45.099609 142.7793 C 47.64257 149.64046 51.204146 153.41334 54.923828 157.01172 L 56.3125 155.58008 C 52.63341 152.02093 49.391436 148.60679 46.974609 142.08594 C 46.607666 141.09589 46.268129 140.00375 45.943359 138.85742 z "
       transform="matrix(0.26458333,0,0,0.26458333,20.278423,157.50788)"
       id="path4297" />
    <path
       style="color:#000000;font-style:normal;font-variant:normal;font-weight:normal;font-stretch:normal;font-size:medium;line-height:normal;font-family:sans-serif;font-variant-ligatures:normal;font-variant-position:normal;font-variant-caps:normal;font-variant-numeric:normal;font-variant-alternates:normal;font-feature-settings:normal;text-indent:0;text-align:start;text-decoration:none;text-decoration-line:none;text-decoration-style:solid;text-decoration-color:#000000;letter-spacing:normal;word-spacing:normal;text-transform:none;writing-mode:lr-tb;direction:ltr;text-orientation:mixed;dominant-baseline:auto;baseline-shift:baseline;text-anchor:start;white-space:normal;shape-padding:0;clip-rule:nonzero;display:inline;overflow:visible;visibility:visible;opacity:1;isolation:auto;mix-blend-mode:normal;color-interpolation:sRGB;color-interpolation-filters:linearRGB;solid-color:#000000;solid-opacity:1;fill:#ed3146;fill-opacity:1;fill-rule:nonzero;stroke:none;stroke-width:3.99999976;stroke-linecap:butt;stroke-linejoin:miter;stroke-miterlimit:4;stroke-dasharray:none;stroke-dashoffset:0;stroke-opacity:1;marker:none;color-rendering:auto;image-rendering:auto;shape-rendering:auto;text-rendering:auto;enable-background:accumulate"
       d="M 95 92 C 76.799364 92 62.003906 106.79739 62.003906 124.99805 C 62.003906 143.19866 76.799364 158.00195 95 158.00195 C 113.20064 158.00195 127.99805 143.19866 127.99805 124.99805 C 127.99805 106.79739 113.20064 92 95 92 z M 95 96.001953 C 102.29879 96.001953 108.9551 98.69107 114.04688 103.12695 L 73.130859 144.04688 C 68.694436 138.9533 66.003905 132.29733 66.003906 124.99805 C 66.003906 108.95917 78.961125 96.001953 95 96.001953 z M 116.87695 105.95703 C 121.30959 111.04801 123.99609 117.70224 123.99609 124.99805 C 123.99609 141.03693 111.03888 154 95 154 C 87.702466 154 81.048469 151.31119 75.957031 146.875 L 116.87695 105.95703 z "
       transform="matrix(0.26458333,0,0,0.26458333,20.278423,157.50788)"
       id="circle4266" />
  </g>
</svg>
